<svg xmlns="http://www.w3.org/2000/svg" width="1074" height="128" viewBox="0 0 1074 128">
<rect width="100%" height="100%" fill="#fff"/>
<text x="16" y="24" font-size="18" font-weight="700" fill="#202124">年度收益热力图（红涨绿跌）</text>
<rect x="16" y="44" width="96" height="56" rx="7" fill="#c84630" fill-opacity="0.22"/>
<text x="26" y="66" font-size="13" font-weight="700" fill="#202124">2017</text>
<text x="26" y="87" font-size="15" font-weight="700" fill="#202124">3.4%</text>
<rect x="120" y="44" width="96" height="56" rx="7" fill="#c84630" fill-opacity="0.23"/>
<text x="130" y="66" font-size="13" font-weight="700" fill="#202124">2018</text>
<text x="130" y="87" font-size="15" font-weight="700" fill="#202124">4.2%</text>
<rect x="224" y="44" width="96" height="56" rx="7" fill="#c84630" fill-opacity="0.42"/>
<text x="234" y="66" font-size="13" font-weight="700" fill="#202124">2019</text>
<text x="234" y="87" font-size="15" font-weight="700" fill="#202124">19.7%</text>
<rect x="328" y="44" width="96" height="56" rx="7" fill="#c84630" fill-opacity="0.35"/>
<text x="338" y="66" font-size="13" font-weight="700" fill="#202124">2020</text>
<text x="338" y="87" font-size="15" font-weight="700" fill="#202124">14.4%</text>
<rect x="432" y="44" width="96" height="56" rx="7" fill="#217a43" fill-opacity="0.23"/>
<text x="442" y="66" font-size="13" font-weight="700" fill="#202124">2021</text>
<text x="442" y="87" font-size="15" font-weight="700" fill="#202124">-4.1%</text>
<rect x="536" y="44" width="96" height="56" rx="7" fill="#c84630" fill-opacity="0.30"/>
<text x="546" y="66" font-size="13" font-weight="700" fill="#202124">2022</text>
<text x="546" y="87" font-size="15" font-weight="700" fill="#202124">9.8%</text>
<rect x="640" y="44" width="96" height="56" rx="7" fill="#c84630" fill-opacity="0.38"/>
<text x="650" y="66" font-size="13" font-weight="700" fill="#202124">2023</text>
<text x="650" y="87" font-size="15" font-weight="700" fill="#202124">16.8%</text>
<rect x="744" y="44" width="96" height="56" rx="7" fill="#c84630" fill-opacity="0.52"/>
<text x="754" y="66" font-size="13" font-weight="700" fill="#202124">2024</text>
<text x="754" y="87" font-size="15" font-weight="700" fill="#202124">28.2%</text>
<rect x="848" y="44" width="96" height="56" rx="7" fill="#c84630" fill-opacity="0.88"/>
<text x="858" y="66" font-size="13" font-weight="700" fill="#202124">2025</text>
<text x="858" y="87" font-size="15" font-weight="700" fill="#202124">58.6%</text>
<rect x="952" y="44" width="96" height="56" rx="7" fill="#217a43" fill-opacity="0.23"/>
<text x="962" y="66" font-size="13" font-weight="700" fill="#202124">2026</text>
<text x="962" y="87" font-size="15" font-weight="700" fill="#202124">-4.0%</text>
</svg>
