<svg xmlns="http://www.w3.org/2000/svg" width="1100" height="360" viewBox="0 0 1100 360">
<rect width="100%" height="100%" fill="#fff"/>
<text x="62" y="22" font-size="18" font-weight="700" fill="#202124">年度涨跌幅（红涨绿跌）</text>
<line x1="62" y1="312.00" x2="1078" y2="312.00" stroke="#deded6"/>
<text x="8" y="316.00" font-size="12" fill="#6b7280">-10%</text>
<line x1="62" y1="271.46" x2="1078" y2="271.46" stroke="#deded6"/>
<text x="8" y="275.46" font-size="12" fill="#6b7280">0%</text>
<line x1="62" y1="230.92" x2="1078" y2="230.92" stroke="#deded6"/>
<text x="8" y="234.92" font-size="12" fill="#6b7280">10%</text>
<line x1="62" y1="190.38" x2="1078" y2="190.38" stroke="#deded6"/>
<text x="8" y="194.38" font-size="12" fill="#6b7280">20%</text>
<line x1="62" y1="149.83" x2="1078" y2="149.83" stroke="#deded6"/>
<text x="8" y="153.83" font-size="12" fill="#6b7280">30%</text>
<line x1="62" y1="109.29" x2="1078" y2="109.29" stroke="#deded6"/>
<text x="8" y="113.29" font-size="12" fill="#6b7280">40%</text>
<line x1="62" y1="68.75" x2="1078" y2="68.75" stroke="#deded6"/>
<text x="8" y="72.75" font-size="12" fill="#6b7280">50%</text>
<line x1="62" y1="28.21" x2="1078" y2="28.21" stroke="#deded6"/>
<text x="8" y="32.21" font-size="12" fill="#6b7280">60%</text>
<path d="M62,34 L62,312 L1078,312" fill="none" stroke="#bdbdb5"/>
<rect x="81.30" y="257.48" width="62.99" height="13.98" fill="#c84630" rx="2"/>
<text x="98.80" y="342" font-size="12" fill="#6b7280">2017</text>
<rect x="182.90" y="254.23" width="62.99" height="17.23" fill="#c84630" rx="2"/>
<text x="200.40" y="342" font-size="12" fill="#6b7280">2018</text>
<rect x="284.50" y="191.40" width="62.99" height="80.06" fill="#c84630" rx="2"/>
<text x="302.00" y="342" font-size="12" fill="#6b7280">2019</text>
<rect x="386.10" y="212.93" width="62.99" height="58.53" fill="#c84630" rx="2"/>
<text x="403.60" y="342" font-size="12" fill="#6b7280">2020</text>
<rect x="487.70" y="271.46" width="62.99" height="16.79" fill="#217a43" rx="2"/>
<text x="505.20" y="342" font-size="12" fill="#6b7280">2021</text>
<rect x="589.30" y="231.73" width="62.99" height="39.73" fill="#c84630" rx="2"/>
<text x="606.80" y="342" font-size="12" fill="#6b7280">2022</text>
<rect x="690.90" y="203.21" width="62.99" height="68.25" fill="#c84630" rx="2"/>
<text x="708.40" y="342" font-size="12" fill="#6b7280">2023</text>
<rect x="792.50" y="157.16" width="62.99" height="114.30" fill="#c84630" rx="2"/>
<text x="810.00" y="342" font-size="12" fill="#6b7280">2024</text>
<rect x="894.10" y="34.00" width="62.99" height="237.46" fill="#c84630" rx="2"/>
<text x="911.60" y="342" font-size="12" fill="#6b7280">2025</text>
<rect x="995.70" y="271.46" width="62.99" height="16.23" fill="#217a43" rx="2"/>
<text x="1013.20" y="342" font-size="12" fill="#6b7280">2026</text>
</svg>
