<svg xmlns="http://www.w3.org/2000/svg" width="1200" height="520" viewBox="0 0 1200 520">
<rect width="100%" height="100%" fill="#fff"/>
<text x="62" y="22" font-size="18" font-weight="700" fill="#202124">近一年 Au99.99 日线与均线（人民币/克）</text>
<line x1="62" y1="492.84" x2="1178" y2="492.84" stroke="#deded6"/>
<text x="8" y="496.84" font-size="12" fill="#6b7280">600</text>
<line x1="62" y1="425.10" x2="1178" y2="425.10" stroke="#deded6"/>
<text x="8" y="429.10" font-size="12" fill="#6b7280">700</text>
<line x1="62" y1="357.36" x2="1178" y2="357.36" stroke="#deded6"/>
<text x="8" y="361.36" font-size="12" fill="#6b7280">800</text>
<line x1="62" y1="289.62" x2="1178" y2="289.62" stroke="#deded6"/>
<text x="8" y="293.62" font-size="12" fill="#6b7280">900</text>
<line x1="62" y1="221.88" x2="1178" y2="221.88" stroke="#deded6"/>
<text x="8" y="225.88" font-size="12" fill="#6b7280">1000</text>
<line x1="62" y1="154.14" x2="1178" y2="154.14" stroke="#deded6"/>
<text x="8" y="158.14" font-size="12" fill="#6b7280">1100</text>
<line x1="62" y1="86.40" x2="1178" y2="86.40" stroke="#deded6"/>
<text x="8" y="90.40" font-size="12" fill="#6b7280">1200</text>
<line x1="62" y1="18.66" x2="1178" y2="18.66" stroke="#deded6"/>
<text x="8" y="22.66" font-size="12" fill="#6b7280">1300</text>
<path d="M62,32 L62,476 L1178,476" fill="none" stroke="#bdbdb5"/>
<line x1="62.00" y1="476" x2="62.00" y2="481" stroke="#bdbdb5"/>
<text x="44.00" y="508" font-size="12" fill="#6b7280">2025</text>
<line x1="682.00" y1="476" x2="682.00" y2="481" stroke="#bdbdb5"/>
<text x="664.00" y="508" font-size="12" fill="#6b7280">2026</text>
<path d="M62.00,369.65 L66.59,372.66 L71.19,372.67 L75.78,372.27 L80.37,378.45 L84.96,376.67 L89.56,375.21 L94.15,382.22 L98.74,381.45 L103.33,375.73 L107.93,377.21 L112.52,373.52 L117.11,376.39 L121.70,379.20 L126.30,376.68 L130.89,382.16 L135.48,377.86 L140.07,377.91 L144.67,372.67 L149.26,373.60 L153.85,376.05 L158.44,377.06 L163.04,375.31 L167.63,372.71 L172.22,370.67 L176.81,365.15 L181.41,374.06 L186.00,374.83 L190.59,376.46 L195.19,379.24 L199.78,377.90 L204.37,379.47 L208.96,379.52 L213.56,373.61 L218.15,371.01 L222.74,371.49 L227.33,369.50 L231.93,368.75 L236.52,373.93 L241.11,375.33 L245.70,374.32 L250.30,374.26 L254.89,375.28 L259.48,374.66 L264.07,375.61 L268.67,377.52 L273.26,376.33 L277.85,376.41 L282.44,373.72 L287.04,372.87 L291.63,372.21 L296.22,371.01 L300.81,369.75 L305.41,360.98 L310.00,357.39 L314.59,351.26 L319.19,351.13 L323.78,349.57 L328.37,343.00 L332.96,335.68 L337.56,337.21 L342.15,339.39 L346.74,336.76 L351.33,338.25 L355.93,331.12 L360.52,335.78 L365.11,340.70 L369.70,339.27 L374.30,330.60 L378.89,323.05 L383.48,319.00 L388.07,322.31 L392.67,321.46 L397.26,314.75 L401.85,308.68 L406.44,281.83 L411.04,291.22 L415.63,271.51 L420.22,262.04 L424.81,249.63 L429.41,243.46 L434.00,223.80 L438.59,239.29 L443.19,230.60 L447.78,256.56 L452.37,261.70 L456.96,265.50 L461.56,268.76 L466.15,291.92 L470.74,280.85 L475.33,284.95 L479.93,275.06 L484.52,276.07 L489.11,278.45 L493.70,282.85 L498.30,277.43 L502.89,277.41 L507.48,266.04 L512.07,257.92 L516.67,259.25 L521.26,249.56 L525.85,257.08 L530.44,268.34 L535.04,278.13 L539.63,265.69 L544.22,269.33 L548.81,273.06 L553.41,272.01 L558.00,261.48 L562.59,261.74 L567.19,259.83 L571.78,257.00 L576.37,250.02 L580.96,252.44 L585.56,255.71 L590.15,256.21 L594.74,251.35 L599.33,252.97 L603.93,257.69 L608.52,255.13 L613.11,254.13 L617.70,246.10 L622.30,237.58 L626.89,245.66 L631.48,240.37 L636.07,238.44 L640.67,238.47 L645.26,226.76 L649.85,217.23 L654.44,216.67 L659.04,219.86 L663.63,217.14 L668.22,219.17 L672.81,234.13 L677.41,238.88 L682.00,226.24 L686.59,219.84 L691.19,222.10 L695.78,224.45 L700.37,219.52 L704.96,205.82 L709.56,204.93 L714.15,196.14 L718.74,198.67 L723.33,199.78 L727.93,190.91 L732.52,183.65 L737.11,162.40 L741.70,165.19 L746.30,147.16 L750.89,124.03 L755.48,124.24 L760.07,96.59 L764.67,57.26 L769.26,110.82 L773.85,201.56 L778.44,155.57 L783.04,126.84 L787.63,150.44 L792.22,158.31 L796.81,143.29 L801.41,142.84 L806.00,138.55 L810.59,138.89 L815.19,148.10 L819.78,121.86 L824.37,123.22 L828.96,123.99 L833.56,125.03 L838.15,86.77 L842.74,98.59 L847.33,118.12 L851.93,120.54 L856.52,127.50 L861.11,126.79 L865.70,123.81 L870.30,119.99 L874.89,122.68 L879.48,133.08 L884.07,144.24 L888.67,143.32 L893.26,146.09 L897.85,180.56 L902.44,193.71 L907.04,272.92 L911.63,235.73 L916.22,211.41 L920.81,227.73 L925.41,226.01 L930.00,215.95 L934.59,209.08 L939.19,189.44 L943.78,203.25 L948.37,198.56 L952.96,202.91 L957.56,181.30 L962.15,197.49 L966.74,189.89 L971.33,193.23 L975.93,189.13 L980.52,184.49 L985.11,182.35 L989.70,185.98 L994.30,185.31 L998.89,187.69 L1003.48,188.61 L1008.07,196.48 L1012.67,199.36 L1017.26,196.67 L1021.85,207.84 L1026.44,215.19 L1031.04,212.67 L1035.63,203.63 L1040.22,195.50 L1044.81,200.20 L1049.41,204.39 L1054.00,202.57 L1058.59,201.57 L1063.19,202.45 L1067.78,217.81 L1072.37,222.09 L1076.96,223.23 L1081.56,232.05 L1086.15,227.71 L1090.74,227.23 L1095.33,223.91 L1099.93,227.32 L1104.52,233.71 L1109.11,247.74 L1113.70,232.07 L1118.30,235.02 L1122.89,230.38 L1127.48,240.31 L1132.07,239.15 L1136.67,239.21 L1141.26,261.84 L1145.85,259.15 L1150.44,279.03 L1155.04,292.32 L1159.63,284.56 L1164.22,264.21 L1168.81,262.20 L1173.41,263.08 L1178.00,265.33" fill="none" stroke="#c8911a" stroke-width="2.3"/>
<path d="M62.00,373.03 L66.59,372.91 L71.19,372.94 L75.78,372.89 L80.37,373.06 L84.96,372.96 L89.56,372.83 L94.15,372.82 L98.74,372.97 L103.33,373.16 L107.93,373.45 L112.52,373.63 L117.11,373.90 L121.70,374.05 L126.30,374.09 L130.89,374.48 L135.48,374.84 L140.07,375.60 L144.67,375.97 L149.26,376.21 L153.85,376.53 L158.44,376.75 L163.04,376.88 L167.63,376.90 L172.22,376.52 L176.81,375.94 L181.41,375.88 L186.00,375.51 L190.59,375.26 L195.19,375.44 L199.78,375.47 L204.37,375.77 L208.96,375.93 L213.56,375.65 L218.15,375.36 L222.74,374.83 L227.33,374.41 L231.93,373.95 L236.52,374.02 L241.11,374.10 L245.70,374.02 L250.30,373.88 L254.89,373.87 L259.48,373.97 L264.07,374.22 L268.67,374.84 L273.26,374.95 L277.85,375.03 L282.44,374.89 L287.04,374.57 L291.63,374.29 L296.22,373.87 L300.81,373.38 L305.41,372.75 L310.00,372.07 L314.59,371.05 L319.19,370.14 L323.78,369.18 L328.37,367.63 L332.96,365.65 L337.56,363.79 L342.15,362.05 L346.74,360.12 L351.33,358.30 L355.93,356.08 L360.52,353.99 L365.11,352.21 L369.70,350.35 L374.30,348.20 L378.89,345.71 L383.48,343.04 L388.07,340.61 L392.67,338.20 L397.26,335.88 L401.85,333.45 L406.44,329.98 L411.04,326.98 L415.63,323.08 L420.22,319.03 L424.81,314.73 L429.41,310.04 L434.00,304.26 L438.59,299.39 L443.19,294.01 L447.78,290.28 L452.37,286.57 L456.96,282.81 L461.56,279.29 L466.15,277.35 L470.74,275.24 L475.33,273.54 L479.93,271.18 L484.52,268.91 L489.11,267.09 L493.70,265.80 L498.30,265.58 L502.89,264.89 L507.48,264.62 L512.07,264.41 L516.67,264.89 L521.26,265.20 L525.85,266.86 L530.44,268.32 L535.04,270.69 L539.63,271.15 L544.22,271.53 L548.81,271.91 L553.41,272.07 L558.00,270.55 L562.59,269.59 L567.19,268.34 L571.78,267.43 L576.37,266.13 L580.96,264.83 L585.56,263.47 L590.15,262.41 L594.74,261.11 L599.33,260.46 L603.93,260.44 L608.52,260.24 L613.11,260.47 L617.70,259.92 L622.30,258.38 L626.89,256.76 L631.48,255.49 L636.07,253.95 L640.67,252.22 L645.26,249.95 L649.85,247.74 L654.44,245.49 L659.04,243.49 L663.63,241.50 L668.22,239.95 L672.81,239.04 L677.41,238.20 L682.00,236.70 L686.59,235.12 L691.19,233.58 L695.78,231.92 L700.37,230.14 L704.96,227.72 L709.56,225.66 L714.15,223.59 L718.74,221.24 L723.33,219.21 L727.93,216.83 L732.52,214.09 L737.11,210.88 L741.70,208.27 L746.30,204.80 L750.89,200.01 L755.48,195.36 L760.07,189.23 L764.67,180.39 L769.26,173.99 L773.85,172.75 L778.44,169.54 L783.04,164.78 L787.63,161.08 L792.22,158.02 L796.81,154.89 L801.41,151.78 L806.00,148.90 L810.59,145.92 L815.19,143.33 L819.78,139.88 L824.37,136.86 L828.96,134.94 L833.56,132.93 L838.15,129.91 L842.74,128.64 L847.33,128.33 L851.93,129.53 L856.52,133.04 L861.11,133.84 L865.70,129.95 L870.30,128.17 L874.89,127.96 L879.48,127.10 L884.07,126.39 L888.67,126.39 L893.26,126.56 L897.85,128.66 L902.44,131.40 L907.04,137.64 L911.63,143.33 L916.22,147.74 L920.81,152.93 L925.41,157.98 L930.00,164.44 L934.59,169.96 L939.19,173.53 L943.78,177.66 L948.37,181.22 L952.96,185.02 L957.56,187.90 L962.15,191.77 L966.74,195.13 L971.33,198.14 L975.93,200.39 L980.52,202.44 L985.11,204.26 L989.70,204.53 L994.30,204.11 L998.89,199.85 L1003.48,197.49 L1008.07,196.74 L1012.67,195.33 L1017.26,193.86 L1021.85,193.45 L1026.44,193.76 L1031.04,194.92 L1035.63,194.94 L1040.22,194.79 L1044.81,194.65 L1049.41,195.80 L1054.00,196.06 L1058.59,196.64 L1063.19,197.10 L1067.78,198.54 L1072.37,200.42 L1076.96,202.46 L1081.56,204.77 L1086.15,206.89 L1090.74,208.86 L1095.33,210.63 L1099.93,212.17 L1104.52,213.89 L1109.11,216.44 L1113.70,217.65 L1118.30,218.64 L1122.89,219.53 L1127.48,221.36 L1132.07,223.55 L1136.67,225.50 L1141.26,228.37 L1145.85,231.20 L1150.44,235.07 L1155.04,239.57 L1159.63,242.90 L1164.22,245.01 L1168.81,246.96 L1173.41,248.51 L1178.00,250.39" fill="none" stroke="#2764d8" stroke-width="1.3"/>
<path d="M62.00,382.78 L66.59,382.01 L71.19,381.21 L75.78,380.40 L80.37,379.67 L84.96,378.95 L89.56,378.23 L94.15,377.75 L98.74,377.37 L103.33,376.95 L107.93,376.52 L112.52,376.10 L117.11,375.45 L121.70,374.88 L126.30,374.40 L130.89,374.15 L135.48,374.01 L140.07,373.93 L144.67,373.76 L149.26,373.83 L153.85,373.98 L158.44,374.18 L163.04,374.53 L167.63,375.07 L172.22,375.15 L176.81,375.19 L181.41,375.31 L186.00,375.36 L190.59,375.45 L195.19,375.59 L199.78,375.84 L204.37,376.20 L208.96,376.41 L213.56,376.52 L218.15,376.28 L222.74,376.11 L227.33,375.84 L231.93,375.31 L236.52,374.98 L241.11,374.77 L245.70,374.52 L250.30,374.51 L254.89,374.56 L259.48,374.59 L264.07,374.60 L268.67,374.58 L273.26,374.55 L277.85,374.45 L282.44,374.37 L287.04,374.39 L291.63,374.41 L296.22,374.42 L300.81,374.40 L305.41,374.15 L310.00,373.84 L314.59,373.45 L319.19,373.13 L323.78,372.91 L328.37,372.54 L332.96,371.99 L337.56,371.45 L342.15,370.89 L346.74,370.29 L351.33,369.73 L355.93,368.94 L360.52,368.26 L365.11,367.68 L369.70,366.96 L374.30,366.12 L378.89,365.24 L383.48,364.27 L388.07,363.42 L392.67,362.50 L397.26,361.43 L401.85,360.29 L406.44,358.62 L411.04,357.18 L415.63,355.40 L420.22,353.56 L424.81,351.49 L429.41,349.28 L434.00,346.73 L438.59,344.46 L443.19,342.09 L447.78,340.19 L452.37,338.47 L456.96,336.66 L461.56,334.89 L466.15,333.48 L470.74,331.84 L475.33,330.29 L479.93,328.55 L484.52,326.83 L489.11,325.24 L493.70,323.77 L498.30,322.20 L502.89,320.67 L507.48,318.96 L512.07,317.02 L516.67,315.09 L521.26,313.01 L525.85,311.06 L530.44,309.28 L535.04,307.67 L539.63,305.83 L544.22,304.03 L548.81,302.31 L553.41,300.57 L558.00,298.70 L562.59,296.85 L567.19,294.97 L571.78,293.07 L576.37,291.08 L580.96,289.27 L585.56,287.57 L590.15,285.99 L594.74,284.33 L599.33,282.72 L603.93,281.30 L608.52,279.95 L613.11,278.57 L617.70,277.01 L622.30,275.36 L626.89,273.82 L631.48,272.31 L636.07,270.68 L640.67,268.98 L645.26,267.10 L649.85,265.21 L654.44,263.44 L659.04,261.79 L663.63,260.04 L668.22,258.33 L672.81,256.99 L677.41,255.82 L682.00,254.90 L686.59,253.71 L691.19,252.88 L695.78,252.26 L700.37,251.76 L704.96,251.13 L709.56,250.81 L714.15,250.10 L718.74,249.56 L723.33,248.62 L727.93,247.44 L732.52,246.07 L737.11,244.30 L741.70,242.19 L746.30,239.96 L750.89,237.28 L755.48,234.76 L760.07,231.77 L764.67,228.09 L769.26,225.22 L773.85,223.95 L778.44,221.92 L783.04,219.60 L787.63,217.81 L792.22,216.13 L796.81,214.36 L801.41,212.45 L806.00,210.29 L810.59,207.97 L815.19,206.01 L819.78,203.55 L824.37,201.06 L828.96,198.59 L833.56,196.31 L838.15,193.40 L842.74,190.71 L847.33,188.40 L851.93,186.24 L856.52,184.16 L861.11,182.01 L865.70,179.80 L870.30,177.61 L874.89,175.44 L879.48,173.36 L884.07,171.52 L888.67,169.67 L893.26,168.00 L897.85,167.05 L902.44,166.19 L907.04,166.73 L911.63,166.68 L916.22,166.23 L920.81,166.25 L925.41,166.39 L930.00,166.38 L934.59,166.20 L939.19,165.74 L943.78,165.48 L948.37,164.88 L952.96,164.28 L957.56,163.53 L962.15,163.16 L966.74,162.62 L971.33,162.10 L975.93,161.60 L980.52,161.24 L985.11,160.87 L989.70,160.70 L994.30,160.47 L998.89,160.27 L1003.48,160.23 L1008.07,160.45 L1012.67,161.06 L1017.26,161.59 L1021.85,162.60 L1026.44,164.12 L1031.04,165.59 L1035.63,167.38 L1040.22,169.68 L1044.81,171.17 L1049.41,171.22 L1054.00,172.00 L1058.59,173.25 L1063.19,174.11 L1067.78,175.11 L1072.37,176.42 L1076.96,177.76 L1081.56,179.32 L1086.15,180.80 L1090.74,182.12 L1095.33,183.82 L1099.93,185.55 L1104.52,187.38 L1109.11,189.43 L1113.70,191.85 L1118.30,194.12 L1122.89,195.99 L1127.48,197.99 L1132.07,199.85 L1136.67,201.72 L1141.26,204.02 L1145.85,206.34 L1150.44,208.95 L1155.04,211.60 L1159.63,213.94 L1164.22,215.96 L1168.81,217.89 L1173.41,219.27 L1178.00,220.46" fill="none" stroke="#008b8b" stroke-width="1.4"/>
<path d="M62.00,462.91 L66.59,462.32 L71.19,461.73 L75.78,461.09 L80.37,460.49 L84.96,459.88 L89.56,459.26 L94.15,458.68 L98.74,458.09 L103.33,457.49 L107.93,456.90 L112.52,456.31 L117.11,455.70 L121.70,455.11 L126.30,454.50 L130.89,453.91 L135.48,453.31 L140.07,452.72 L144.67,452.10 L149.26,451.50 L153.85,450.91 L158.44,450.34 L163.04,449.75 L167.63,449.15 L172.22,448.56 L176.81,447.95 L181.41,447.37 L186.00,446.80 L190.59,446.26 L195.19,445.74 L199.78,445.22 L204.37,444.66 L208.96,444.11 L213.56,443.52 L218.15,442.95 L222.74,442.33 L227.33,441.72 L231.93,441.11 L236.52,440.52 L241.11,439.95 L245.70,439.39 L250.30,438.84 L254.89,438.26 L259.48,437.67 L264.07,437.08 L268.67,436.49 L273.26,435.92 L277.85,435.36 L282.44,434.80 L287.04,434.22 L291.63,433.65 L296.22,433.07 L300.81,432.50 L305.41,431.90 L310.00,431.29 L314.59,430.65 L319.19,430.01 L323.78,429.37 L328.37,428.70 L332.96,428.00 L337.56,427.30 L342.15,426.62 L346.74,425.92 L351.33,425.22 L355.93,424.48 L360.52,423.78 L365.11,423.10 L369.70,422.40 L374.30,421.68 L378.89,420.94 L383.48,420.17 L388.07,419.44 L392.67,418.71 L397.26,417.95 L401.85,417.18 L406.44,416.32 L411.04,415.49 L415.63,414.59 L420.22,413.66 L424.81,412.68 L429.41,411.67 L434.00,410.58 L438.59,409.53 L443.19,408.46 L447.78,407.50 L452.37,406.58 L456.96,405.68 L461.56,404.81 L466.15,404.04 L470.74,403.24 L475.33,402.47 L479.93,401.67 L484.52,400.88 L489.11,400.09 L493.70,399.30 L498.30,398.51 L502.89,397.73 L507.48,396.92 L512.07,396.07 L516.67,395.21 L521.26,394.30 L525.85,393.43 L530.44,392.59 L535.04,391.76 L539.63,390.89 L544.22,390.03 L548.81,389.16 L553.41,388.28 L558.00,387.34 L562.59,386.39 L567.19,385.45 L571.78,384.53 L576.37,383.58 L580.96,382.66 L585.56,381.78 L590.15,380.88 L594.74,379.93 L599.33,379.01 L603.93,378.10 L608.52,377.19 L613.11,376.27 L617.70,375.33 L622.30,374.35 L626.89,373.41 L631.48,372.43 L636.07,371.46 L640.67,370.50 L645.26,369.50 L649.85,368.48 L654.44,367.43 L659.04,366.39 L663.63,365.34 L668.22,364.29 L672.81,363.29 L677.41,362.31 L682.00,361.29 L686.59,360.24 L691.19,359.21 L695.78,358.18 L700.37,357.14 L704.96,356.04 L709.56,354.92 L714.15,353.80 L718.74,352.69 L723.33,351.59 L727.93,350.45 L732.52,349.29 L737.11,348.05 L741.70,346.83 L746.30,345.55 L750.89,344.16 L755.48,342.78 L760.07,341.29 L764.67,339.65 L769.26,338.23 L773.85,337.17 L778.44,335.94 L783.04,334.59 L787.63,333.34 L792.22,332.12 L796.81,330.91 L801.41,329.69 L806.00,328.46 L810.59,327.26 L815.19,326.11 L819.78,324.84 L824.37,323.59 L828.96,322.35 L833.56,321.09 L838.15,319.69 L842.74,318.34 L847.33,317.09 L851.93,315.82 L856.52,314.59 L861.11,313.36 L865.70,312.10 L870.30,310.82 L874.89,309.53 L879.48,308.28 L884.07,307.10 L888.67,305.93 L893.26,304.76 L897.85,303.72 L902.44,302.75 L907.04,302.08 L911.63,301.26 L916.22,300.36 L920.81,299.56 L925.41,298.75 L930.00,297.91 L934.59,297.07 L939.19,296.15 L943.78,295.28 L948.37,294.39 L952.96,293.51 L957.56,292.56 L962.15,291.68 L966.74,290.79 L971.33,289.95 L975.93,289.10 L980.52,288.23 L985.11,287.36 L989.70,286.44 L994.30,285.53 L998.89,284.66 L1003.48,283.83 L1008.07,283.07 L1012.67,282.33 L1017.26,281.59 L1021.85,280.94 L1026.44,280.33 L1031.04,279.72 L1035.63,279.12 L1040.22,278.54 L1044.81,277.88 L1049.41,277.25 L1054.00,276.59 L1058.59,275.91 L1063.19,275.23 L1067.78,274.62 L1072.37,274.06 L1076.96,273.52 L1081.56,272.98 L1086.15,272.42 L1090.74,271.79 L1095.33,271.16 L1099.93,270.53 L1104.52,269.86 L1109.11,269.27 L1113.70,268.65 L1118.30,268.04 L1122.89,267.46 L1127.48,266.93 L1132.07,266.39 L1136.67,265.85 L1141.26,265.38 L1145.85,264.91 L1150.44,264.49 L1155.04,264.15 L1159.63,263.80 L1164.22,263.37 L1168.81,262.94 L1173.41,262.51 L1178.00,262.07" fill="none" stroke="#6d5bd0" stroke-width="1.6"/>
<line x1="62" y1="498" x2="86" y2="498" stroke="#c8911a" stroke-width="4"/><text x="94" y="502" font-size="13" fill="#202124">收盘价</text>
<line x1="167" y1="498" x2="191" y2="498" stroke="#2764d8" stroke-width="4"/><text x="199" y="502" font-size="13" fill="#202124">MA20</text>
<line x1="272" y1="498" x2="296" y2="498" stroke="#008b8b" stroke-width="4"/><text x="304" y="502" font-size="13" fill="#202124">MA60</text>
<line x1="377" y1="498" x2="401" y2="498" stroke="#6d5bd0" stroke-width="4"/><text x="409" y="502" font-size="13" fill="#202124">MA250</text>
</svg>
