<svg xmlns="http://www.w3.org/2000/svg" width="1200" height="360" viewBox="0 0 1200 360">
<rect width="100%" height="100%" fill="#fff"/>
<text x="62" y="22" font-size="18" font-weight="700" fill="#202124">近一年回撤曲线（带时间轴）</text>
<line x1="62" y1="318.15" x2="1178" y2="318.15" stroke="#deded6"/>
<text x="8" y="322.15" font-size="12" fill="#6b7280">-30%</text>
<line x1="62" y1="273.44" x2="1178" y2="273.44" stroke="#deded6"/>
<text x="8" y="277.44" font-size="12" fill="#6b7280">-25%</text>
<line x1="62" y1="228.73" x2="1178" y2="228.73" stroke="#deded6"/>
<text x="8" y="232.73" font-size="12" fill="#6b7280">-20%</text>
<line x1="62" y1="184.02" x2="1178" y2="184.02" stroke="#deded6"/>
<text x="8" y="188.02" font-size="12" fill="#6b7280">-15%</text>
<line x1="62" y1="139.31" x2="1178" y2="139.31" stroke="#deded6"/>
<text x="8" y="143.31" font-size="12" fill="#6b7280">-10%</text>
<line x1="62" y1="94.59" x2="1178" y2="94.59" stroke="#deded6"/>
<text x="8" y="98.59" font-size="12" fill="#6b7280">-5%</text>
<line x1="62" y1="49.88" x2="1178" y2="49.88" stroke="#deded6"/>
<text x="8" y="53.88" font-size="12" fill="#6b7280">0%</text>
<line x1="62" y1="5.17" x2="1178" y2="5.17" stroke="#deded6"/>
<text x="8" y="9.17" font-size="12" fill="#6b7280">5%</text>
<path d="M62,32 L62,312 L1178,312" fill="none" stroke="#bdbdb5"/>
<line x1="62.00" y1="312" x2="62.00" y2="317" stroke="#bdbdb5"/>
<text x="44.00" y="348" font-size="12" fill="#6b7280">2025</text>
<line x1="682.00" y1="312" x2="682.00" y2="317" stroke="#bdbdb5"/>
<text x="664.00" y="348" font-size="12" fill="#6b7280">2026</text>
<path d="M62.00,49.88 L62.00,97.48 66.59,102.28 71.19,102.29 75.78,101.67 80.37,111.53 84.96,108.69 89.56,106.37 94.15,117.56 98.74,116.34 103.33,107.19 107.93,109.55 112.52,103.66 117.11,108.25 121.70,112.74 126.30,108.70 130.89,117.48 135.48,110.60 140.07,110.67 144.67,102.29 149.26,103.79 153.85,107.71 158.44,109.32 163.04,106.52 167.63,102.36 172.22,99.10 176.81,90.27 181.41,104.52 186.00,105.75 190.59,108.36 195.19,112.81 199.78,110.65 204.37,113.17 208.96,113.24 213.56,103.80 218.15,99.64 222.74,100.41 227.33,97.23 231.93,96.03 236.52,104.31 241.11,106.55 245.70,104.94 250.30,104.84 254.89,106.46 259.48,105.48 264.07,107.00 268.67,110.05 273.26,108.14 277.85,108.28 282.44,103.97 287.04,102.62 291.63,101.57 296.22,99.64 300.81,97.63 305.41,83.60 310.00,77.88 314.59,68.08 319.19,67.87 323.78,65.37 328.37,54.87 332.96,49.88 337.56,52.30 342.15,55.77 346.74,51.59 351.33,53.96 355.93,49.88 360.52,57.22 365.11,64.96 369.70,62.70 374.30,49.88 378.89,49.88 383.48,49.88 388.07,54.99 392.67,53.67 397.26,49.88 401.85,49.88 406.44,49.88 411.04,63.49 415.63,49.88 420.22,49.88 424.81,49.88 429.41,49.88 434.00,49.88 438.59,70.39 443.19,58.90 447.78,93.26 452.37,100.07 456.96,105.10 461.56,109.41 466.15,140.07 470.74,125.42 475.33,130.84 479.93,117.74 484.52,119.09 489.11,122.23 493.70,128.05 498.30,120.88 502.89,120.85 507.48,105.81 512.07,95.06 516.67,96.81 521.26,83.99 525.85,93.95 530.44,108.85 535.04,121.81 539.63,105.34 544.22,110.16 548.81,115.10 553.41,113.71 558.00,99.77 562.59,100.11 567.19,97.58 571.78,93.84 576.37,84.60 580.96,87.80 585.56,92.13 590.15,92.79 594.74,86.35 599.33,88.51 603.93,94.76 608.52,91.37 613.11,90.04 617.70,79.41 622.30,68.13 626.89,78.83 631.48,71.82 636.07,69.27 640.67,69.31 645.26,53.81 649.85,49.88 654.44,49.88 659.04,54.06 663.63,50.50 668.22,53.16 672.81,72.76 677.41,78.98 682.00,62.41 686.59,54.04 691.19,56.99 695.78,60.07 700.37,53.61 704.96,49.88 709.56,49.88 714.15,49.88 718.74,53.10 723.33,54.51 727.93,49.88 732.52,49.88 737.11,49.88 741.70,53.27 746.30,49.88 750.89,49.88 755.48,50.13 760.07,49.88 764.67,49.88 769.26,106.77 773.85,203.13 778.44,154.29 783.04,123.78 787.63,148.84 792.22,157.20 796.81,141.25 801.41,140.76 806.00,136.21 810.59,136.57 815.19,146.35 819.78,118.48 824.37,119.94 828.96,120.75 833.56,121.86 838.15,81.23 842.74,93.78 847.33,114.51 851.93,117.08 856.52,124.48 861.11,123.72 865.70,120.56 870.30,116.50 874.89,119.36 879.48,130.41 884.07,142.26 888.67,141.28 893.26,144.22 897.85,180.83 902.44,194.79 907.04,278.92 911.63,239.41 916.22,213.59 920.81,230.92 925.41,229.10 930.00,218.41 934.59,211.11 939.19,190.26 943.78,204.93 948.37,199.95 952.96,204.57 957.56,181.61 962.15,198.81 966.74,190.73 971.33,194.28 975.93,189.93 980.52,185.01 985.11,182.73 989.70,186.58 994.30,185.88 998.89,188.39 1003.48,189.38 1008.07,197.73 1012.67,200.79 1017.26,197.94 1021.85,209.80 1026.44,217.60 1031.04,214.93 1035.63,205.33 1040.22,196.70 1044.81,201.69 1049.41,206.13 1054.00,204.20 1058.59,203.13 1063.19,204.08 1067.78,220.39 1072.37,224.93 1076.96,226.15 1081.56,235.51 1086.15,230.90 1090.74,230.39 1095.33,226.87 1099.93,230.49 1104.52,237.28 1109.11,252.18 1113.70,235.53 1118.30,238.67 1122.89,233.74 1127.48,244.28 1132.07,243.05 1136.67,243.12 1141.26,267.15 1145.85,264.29 1150.44,285.40 1155.04,299.52 1159.63,291.27 1164.22,269.66 1168.81,267.53 1173.41,268.46 1178.00,270.85 L1178.00,49.88 Z" fill="#217a43" fill-opacity="0.14"/>
<path d="M62.00,97.48 L66.59,102.28 L71.19,102.29 L75.78,101.67 L80.37,111.53 L84.96,108.69 L89.56,106.37 L94.15,117.56 L98.74,116.34 L103.33,107.19 L107.93,109.55 L112.52,103.66 L117.11,108.25 L121.70,112.74 L126.30,108.70 L130.89,117.48 L135.48,110.60 L140.07,110.67 L144.67,102.29 L149.26,103.79 L153.85,107.71 L158.44,109.32 L163.04,106.52 L167.63,102.36 L172.22,99.10 L176.81,90.27 L181.41,104.52 L186.00,105.75 L190.59,108.36 L195.19,112.81 L199.78,110.65 L204.37,113.17 L208.96,113.24 L213.56,103.80 L218.15,99.64 L222.74,100.41 L227.33,97.23 L231.93,96.03 L236.52,104.31 L241.11,106.55 L245.70,104.94 L250.30,104.84 L254.89,106.46 L259.48,105.48 L264.07,107.00 L268.67,110.05 L273.26,108.14 L277.85,108.28 L282.44,103.97 L287.04,102.62 L291.63,101.57 L296.22,99.64 L300.81,97.63 L305.41,83.60 L310.00,77.88 L314.59,68.08 L319.19,67.87 L323.78,65.37 L328.37,54.87 L332.96,49.88 L337.56,52.30 L342.15,55.77 L346.74,51.59 L351.33,53.96 L355.93,49.88 L360.52,57.22 L365.11,64.96 L369.70,62.70 L374.30,49.88 L378.89,49.88 L383.48,49.88 L388.07,54.99 L392.67,53.67 L397.26,49.88 L401.85,49.88 L406.44,49.88 L411.04,63.49 L415.63,49.88 L420.22,49.88 L424.81,49.88 L429.41,49.88 L434.00,49.88 L438.59,70.39 L443.19,58.90 L447.78,93.26 L452.37,100.07 L456.96,105.10 L461.56,109.41 L466.15,140.07 L470.74,125.42 L475.33,130.84 L479.93,117.74 L484.52,119.09 L489.11,122.23 L493.70,128.05 L498.30,120.88 L502.89,120.85 L507.48,105.81 L512.07,95.06 L516.67,96.81 L521.26,83.99 L525.85,93.95 L530.44,108.85 L535.04,121.81 L539.63,105.34 L544.22,110.16 L548.81,115.10 L553.41,113.71 L558.00,99.77 L562.59,100.11 L567.19,97.58 L571.78,93.84 L576.37,84.60 L580.96,87.80 L585.56,92.13 L590.15,92.79 L594.74,86.35 L599.33,88.51 L603.93,94.76 L608.52,91.37 L613.11,90.04 L617.70,79.41 L622.30,68.13 L626.89,78.83 L631.48,71.82 L636.07,69.27 L640.67,69.31 L645.26,53.81 L649.85,49.88 L654.44,49.88 L659.04,54.06 L663.63,50.50 L668.22,53.16 L672.81,72.76 L677.41,78.98 L682.00,62.41 L686.59,54.04 L691.19,56.99 L695.78,60.07 L700.37,53.61 L704.96,49.88 L709.56,49.88 L714.15,49.88 L718.74,53.10 L723.33,54.51 L727.93,49.88 L732.52,49.88 L737.11,49.88 L741.70,53.27 L746.30,49.88 L750.89,49.88 L755.48,50.13 L760.07,49.88 L764.67,49.88 L769.26,106.77 L773.85,203.13 L778.44,154.29 L783.04,123.78 L787.63,148.84 L792.22,157.20 L796.81,141.25 L801.41,140.76 L806.00,136.21 L810.59,136.57 L815.19,146.35 L819.78,118.48 L824.37,119.94 L828.96,120.75 L833.56,121.86 L838.15,81.23 L842.74,93.78 L847.33,114.51 L851.93,117.08 L856.52,124.48 L861.11,123.72 L865.70,120.56 L870.30,116.50 L874.89,119.36 L879.48,130.41 L884.07,142.26 L888.67,141.28 L893.26,144.22 L897.85,180.83 L902.44,194.79 L907.04,278.92 L911.63,239.41 L916.22,213.59 L920.81,230.92 L925.41,229.10 L930.00,218.41 L934.59,211.11 L939.19,190.26 L943.78,204.93 L948.37,199.95 L952.96,204.57 L957.56,181.61 L962.15,198.81 L966.74,190.73 L971.33,194.28 L975.93,189.93 L980.52,185.01 L985.11,182.73 L989.70,186.58 L994.30,185.88 L998.89,188.39 L1003.48,189.38 L1008.07,197.73 L1012.67,200.79 L1017.26,197.94 L1021.85,209.80 L1026.44,217.60 L1031.04,214.93 L1035.63,205.33 L1040.22,196.70 L1044.81,201.69 L1049.41,206.13 L1054.00,204.20 L1058.59,203.13 L1063.19,204.08 L1067.78,220.39 L1072.37,224.93 L1076.96,226.15 L1081.56,235.51 L1086.15,230.90 L1090.74,230.39 L1095.33,226.87 L1099.93,230.49 L1104.52,237.28 L1109.11,252.18 L1113.70,235.53 L1118.30,238.67 L1122.89,233.74 L1127.48,244.28 L1132.07,243.05 L1136.67,243.12 L1141.26,267.15 L1145.85,264.29 L1150.44,285.40 L1155.04,299.52 L1159.63,291.27 L1164.22,269.66 L1168.81,267.53 L1173.41,268.46 L1178.00,270.85" fill="none" stroke="#217a43" stroke-width="2.4"/>
</svg>
