<svg xmlns="http://www.w3.org/2000/svg" width="1029" height="157" viewBox="0 0 1029 157">
<rect width="100%" height="100%" fill="#fff"/>
<text x="16" y="24" font-size="18" font-weight="700" fill="#202124">近一年月度收益热力图（红涨绿跌）</text>
<text x="106.0" y="42" font-size="12" fill="#6b7280">1月</text>
<text x="183.0" y="42" font-size="12" fill="#6b7280">2月</text>
<text x="260.0" y="42" font-size="12" fill="#6b7280">3月</text>
<text x="337.0" y="42" font-size="12" fill="#6b7280">4月</text>
<text x="414.0" y="42" font-size="12" fill="#6b7280">5月</text>
<text x="491.0" y="42" font-size="12" fill="#6b7280">6月</text>
<text x="568.0" y="42" font-size="12" fill="#6b7280">7月</text>
<text x="645.0" y="42" font-size="12" fill="#6b7280">8月</text>
<text x="722.0" y="42" font-size="12" fill="#6b7280">9月</text>
<text x="799.0" y="42" font-size="12" fill="#6b7280">10月</text>
<text x="876.0" y="42" font-size="12" fill="#6b7280">11月</text>
<text x="953.0" y="42" font-size="12" fill="#6b7280">12月</text>
<text x="18" y="78" font-size="14" font-weight="700" fill="#202124">2025</text>
<rect x="82" y="56" width="72" height="35" fill="#f0f0ea" rx="5"/><text x="114.0" y="78" font-size="12" fill="#aaa">-</text>
<rect x="159" y="56" width="72" height="35" fill="#f0f0ea" rx="5"/><text x="191.0" y="78" font-size="12" fill="#aaa">-</text>
<rect x="236" y="56" width="72" height="35" fill="#f0f0ea" rx="5"/><text x="268.0" y="78" font-size="12" fill="#aaa">-</text>
<rect x="313" y="56" width="72" height="35" fill="#f0f0ea" rx="5"/><text x="345.0" y="78" font-size="12" fill="#aaa">-</text>
<rect x="390" y="56" width="72" height="35" fill="#f0f0ea" rx="5"/><text x="422.0" y="78" font-size="12" fill="#aaa">-</text>
<rect x="467" y="56" width="72" height="35" fill="#217a43" fill-opacity="0.38" rx="5"/>
<text x="485.0" y="78" font-size="12" fill="#202124">-4.4%</text>
<rect x="544" y="56" width="72" height="35" fill="#c84630" fill-opacity="0.20" rx="5"/>
<text x="562.0" y="78" font-size="12" fill="#202124">0.8%</text>
<rect x="621" y="56" width="72" height="35" fill="#c84630" fill-opacity="0.25" rx="5"/>
<text x="639.0" y="78" font-size="12" fill="#202124">1.9%</text>
<rect x="698" y="56" width="72" height="35" fill="#c84630" fill-opacity="0.72" rx="5"/>
<text x="716.0" y="78" font-size="12" fill="#202124">11.4%</text>
<rect x="775" y="56" width="72" height="35" fill="#c84630" fill-opacity="0.18" rx="5"/>
<text x="793.0" y="78" font-size="12" fill="#202124">0.4%</text>
<rect x="852" y="56" width="72" height="35" fill="#c84630" fill-opacity="0.29" rx="5"/>
<text x="870.0" y="78" font-size="12" fill="#202124">2.6%</text>
<rect x="929" y="56" width="72" height="35" fill="#c84630" fill-opacity="0.31" rx="5"/>
<text x="947.0" y="78" font-size="12" fill="#202124">3.0%</text>
<text x="18" y="118" font-size="14" font-weight="700" fill="#202124">2026</text>
<rect x="82" y="96" width="72" height="35" fill="#c84630" fill-opacity="0.90" rx="5"/>
<text x="100.0" y="118" font-size="12" fill="#202124">17.6%</text>
<rect x="159" y="96" width="72" height="35" fill="#217a43" fill-opacity="0.20" rx="5"/>
<text x="177.0" y="118" font-size="12" fill="#202124">-0.9%</text>
<rect x="236" y="96" width="72" height="35" fill="#217a43" fill-opacity="0.71" rx="5"/>
<text x="254.0" y="118" font-size="12" fill="#202124">-11.1%</text>
<rect x="313" y="96" width="72" height="35" fill="#217a43" fill-opacity="0.21" rx="5"/>
<text x="331.0" y="118" font-size="12" fill="#202124">-0.9%</text>
<rect x="390" y="96" width="72" height="35" fill="#217a43" fill-opacity="0.32" rx="5"/>
<text x="408.0" y="118" font-size="12" fill="#202124">-3.2%</text>
<rect x="467" y="96" width="72" height="35" fill="#217a43" fill-opacity="0.42" rx="5"/>
<text x="485.0" y="118" font-size="12" fill="#202124">-5.2%</text>
<rect x="544" y="96" width="72" height="35" fill="#f0f0ea" rx="5"/><text x="576.0" y="118" font-size="12" fill="#aaa">-</text>
<rect x="621" y="96" width="72" height="35" fill="#f0f0ea" rx="5"/><text x="653.0" y="118" font-size="12" fill="#aaa">-</text>
<rect x="698" y="96" width="72" height="35" fill="#f0f0ea" rx="5"/><text x="730.0" y="118" font-size="12" fill="#aaa">-</text>
<rect x="775" y="96" width="72" height="35" fill="#f0f0ea" rx="5"/><text x="807.0" y="118" font-size="12" fill="#aaa">-</text>
<rect x="852" y="96" width="72" height="35" fill="#f0f0ea" rx="5"/><text x="884.0" y="118" font-size="12" fill="#aaa">-</text>
<rect x="929" y="96" width="72" height="35" fill="#f0f0ea" rx="5"/><text x="961.0" y="118" font-size="12" fill="#aaa">-</text>
</svg>
