<?xml version="1.0" standalone="no"?>
<!DOCTYPE svg PUBLIC "-//W3C//DTD SVG 20010904//EN"
 "http://www.w3.org/TR/2001/REC-SVG-20010904/DTD/svg10.dtd">
<svg version="1.0" xmlns="http://www.w3.org/2000/svg"
 width="640.000000pt" height="640.000000pt" viewBox="0 0 640.000000 640.000000"
 preserveAspectRatio="xMidYMid meet">
<metadata>
Created by potrace 1.11, written by Peter Selinger 2001-2013
</metadata>
<g transform="translate(0.000000,640.000000) scale(0.100000,-0.100000)"
fill="#000000" stroke="none">
<path d="M0 4792 l0 -1608 37 -30 c20 -16 54 -44 76 -61 21 -18 42 -33 46 -33
3 0 17 -10 31 -23 14 -12 47 -38 75 -57 27 -19 56 -41 63 -48 67 -62 64 -61
273 -65 l194 -2 -200 -3 c-185 -1 -202 0 -225 18 -14 11 -31 20 -37 20 -7 0
-13 4 -13 8 0 5 -19 22 -42 39 -54 38 -191 144 -198 152 -3 3 -22 19 -43 34
l-37 28 0 -130 0 -131 53 0 c55 0 71 -7 141 -67 l40 -33 180 0 c123 -1 188 -5
202 -13 46 -27 284 -210 284 -218 0 -17 -17 -9 -76 39 -33 26 -98 76 -146 111
l-87 64 -168 -2 c-92 -1 -179 2 -193 7 -14 5 -38 22 -54 37 -15 14 -45 35 -65
46 -44 23 -111 26 -111 4 0 -10 10 -15 28 -15 16 0 38 -8 49 -17 24 -21 89
-73 112 -90 9 -6 13 -14 9 -18 -7 -8 -68 31 -81 51 -12 20 -73 54 -96 54 -14
0 -21 -6 -21 -20 0 -15 7 -20 29 -20 27 0 63 -23 113 -72 16 -16 40 -18 203
-18 l186 0 44 -33 c36 -25 44 -37 40 -55 -4 -14 0 -24 10 -28 42 -16 0 -54
-59 -54 -30 0 -36 4 -36 21 0 14 10 24 30 32 41 15 38 39 -9 76 l-39 31 -182
0 -182 0 -46 37 c-26 21 -49 41 -50 46 -2 4 -15 7 -28 7 l-24 0 0 -125 0 -125
155 0 c85 0 155 4 155 9 0 12 48 23 71 16 10 -4 19 -15 19 -25 0 -19 -6 -22
-72 -35 -10 -1 -22 3 -29 11 -9 11 -44 14 -155 14 l-144 0 0 -30 0 -30 399 0
399 0 53 -43 c30 -24 89 -71 132 -105 l78 -62 87 0 c48 0 94 -5 102 -10 10 -7
-19 -10 -90 -10 l-105 0 -90 70 c-50 39 -101 79 -115 89 -14 11 -36 29 -49 40
-24 21 -33 21 -413 21 -252 0 -388 -4 -388 -10 0 -6 126 -10 359 -10 l359 0
84 -65 c45 -36 110 -86 143 -112 l60 -48 150 -5 c115 -4 152 -2 160 8 8 10 18
10 52 -2 23 -8 44 -12 47 -9 3 4 6 1 6 -5 0 -6 -10 -12 -21 -14 -16 -2 -25
-15 -35 -48 -8 -25 -14 -46 -14 -47 0 -2 47 -3 105 -3 76 0 114 4 136 15 29
16 29 15 17 -5 -12 -18 -23 -20 -139 -20 -99 0 -129 -3 -139 -15 -10 -12 5
-15 122 -18 l133 -3 -140 -2 c-197 -3 -213 -21 -20 -23 83 0 146 -2 140 -4 -5
-2 -82 -6 -170 -9 -261 -9 -418 -21 -445 -35 -14 -7 -38 -29 -55 -49 -25 -30
-30 -45 -33 -103 -4 -57 -2 -69 11 -69 9 0 78 35 154 77 76 42 170 93 208 114
l70 38 124 1 c68 0 122 -2 119 -5 -3 -3 -58 -7 -124 -9 -118 -3 -120 -3 -189
-43 -221 -125 -347 -193 -360 -193 -8 0 -15 -4 -15 -10 0 -28 70 -6 184 59 66
37 159 89 205 115 l83 46 99 0 c56 0 99 -4 99 -10 0 -5 -5 -21 -12 -35 -10
-22 -17 -25 -67 -25 -68 0 -113 -12 -157 -42 -46 -31 -64 -82 -64 -177 0 -76
1 -79 25 -85 17 -4 25 -13 25 -27 0 -19 -1 -19 -16 -5 -19 19 -34 12 -34 -16
0 -14 5 -18 15 -14 8 3 15 1 15 -4 0 -6 -4 -10 -10 -10 -5 0 -13 -12 -16 -26
-4 -14 -18 -50 -33 -80 l-26 -54 -27 25 c-26 24 -34 25 -137 25 l-110 0 -24
-32 c-13 -18 -27 -41 -30 -51 -8 -21 -26 -22 -42 -1 -10 15 -15 14 -53 -7 -23
-13 -94 -54 -158 -92 l-117 -67 -238 0 -239 0 0 -166 c0 -132 3 -165 13 -162
7 2 66 35 130 73 74 44 117 76 117 87 0 42 97 77 128 46 35 -35 -4 -74 -83
-85 -55 -7 -52 -6 -197 -93 l-108 -64 0 -44 0 -43 29 20 c16 12 31 21 34 21 3
0 67 37 143 83 283 170 460 275 506 301 46 26 49 26 252 26 113 0 206 2 206 5
0 2 -13 26 -30 52 -36 57 -37 63 -6 63 19 0 24 -6 30 -38 9 -57 53 -109 99
-116 61 -10 157 21 227 74 55 42 68 46 36 12 -29 -31 -235 -165 -282 -182 -14
-6 -122 -10 -241 -10 l-215 0 -152 -93 c-83 -52 -260 -161 -393 -242 -177
-108 -243 -154 -243 -167 0 -22 8 -18 98 38 40 26 63 34 100 34 31 0 55 7 72
20 32 25 105 27 114 4 14 -36 5 -54 -34 -74 -45 -23 -84 -19 -103 11 -25 40
-110 15 -220 -66 -27 -20 -28 -22 -25 -112 l3 -91 65 40 c36 21 110 68 165
103 55 35 151 94 212 132 82 49 116 76 125 97 10 24 9 31 -5 41 -9 7 -17 24
-17 39 0 51 89 81 127 43 20 -20 1 -62 -36 -78 -20 -9 -35 -25 -42 -46 -7 -24
-27 -43 -70 -70 -33 -21 -87 -56 -122 -78 -73 -48 -299 -189 -360 -226 -30
-18 -43 -33 -45 -52 -2 -15 -1 -27 2 -27 3 0 53 30 111 68 57 37 123 78 146
92 23 14 85 53 137 88 53 34 97 62 99 62 2 0 25 15 52 33 26 17 75 48 107 69
33 20 102 64 154 97 l95 61 265 0 265 0 101 68 c55 37 134 89 177 117 84 54
82 51 96 145 11 72 45 264 62 350 l11 56 93 57 c51 31 95 57 99 57 4 0 16 9
28 20 11 10 35 26 52 35 71 37 121 72 124 89 2 10 -7 29 -19 42 -28 29 -19 52
25 67 61 20 102 -33 52 -67 -14 -8 -28 -26 -32 -38 -8 -25 -19 -36 -55 -58
-14 -8 -96 -59 -182 -113 -182 -114 -163 -83 -202 -338 -34 -228 -41 -261 -57
-270 -8 -4 -92 -60 -187 -123 l-173 -116 -266 0 -266 0 -65 -42 c-36 -23 -95
-60 -131 -83 -36 -23 -96 -62 -135 -86 -38 -24 -71 -47 -73 -51 -2 -4 -8 -8
-13 -8 -5 0 -32 -16 -59 -35 -27 -19 -52 -35 -54 -35 -3 0 -60 -36 -128 -80
-68 -44 -153 -98 -191 -121 -61 -38 -67 -44 -67 -75 0 -19 2 -34 5 -34 3 0 67
40 143 89 317 206 494 320 552 355 40 24 109 69 195 126 28 19 47 20 297 20
l268 0 80 52 c60 40 80 58 80 75 0 26 48 63 82 63 28 0 58 -28 58 -53 0 -29
-51 -59 -89 -53 -27 4 -44 -2 -90 -32 -31 -20 -58 -39 -61 -42 -3 -3 -17 -13
-33 -23 -24 -16 -56 -17 -296 -17 l-269 1 -49 -33 c-26 -18 -56 -37 -66 -43
-20 -12 -339 -218 -542 -350 -77 -50 -168 -108 -202 -129 -43 -25 -63 -44 -63
-57 0 -17 8 -19 75 -19 42 0 81 5 88 11 12 10 80 55 242 157 44 28 94 61 110
72 34 25 273 181 323 212 32 19 47 20 281 19 211 -2 250 0 260 13 31 37 133
27 146 -14 22 -68 -102 -133 -155 -80 -19 19 -33 20 -253 20 l-233 0 -195
-127 c-107 -71 -202 -132 -211 -138 -9 -5 -60 -39 -114 -75 l-99 -65 208 -3
208 -2 55 37 c31 21 63 43 72 48 47 28 78 61 88 94 10 33 8 38 -15 57 -23 19
-24 24 -12 51 7 17 22 36 35 42 29 16 86 10 99 -10 17 -26 -1 -70 -33 -82 -23
-9 -31 -21 -43 -61 -13 -48 -19 -54 -103 -111 -80 -54 -86 -60 -62 -63 15 -2
33 2 40 8 7 5 30 21 51 35 20 14 54 36 75 50 20 14 42 28 47 33 6 4 49 34 98
65 70 46 87 62 87 81 0 63 111 99 140 46 15 -28 12 -39 -15 -65 -19 -20 -34
-25 -73 -25 -41 0 -57 -6 -103 -40 -56 -41 -65 -47 -189 -133 -64 -45 -72 -52
-51 -55 16 -3 52 16 115 59 82 56 97 63 151 67 38 3 69 12 84 23 45 36 121 19
121 -27 0 -30 -44 -74 -74 -74 -39 0 -65 12 -71 31 -5 15 -16 19 -56 19 -42 0
-60 -7 -119 -46 -39 -26 -70 -49 -70 -50 0 -2 244 -4 543 -4 l542 0 -80 75
-80 74 -61 1 c-53 0 -66 -4 -99 -30 -34 -27 -45 -30 -106 -30 -38 0 -69 -4
-69 -8 0 -12 -46 -32 -74 -32 -28 0 -56 29 -56 58 0 29 46 62 86 62 31 0 64
-21 64 -41 0 -5 25 -9 56 -9 42 0 64 6 87 22 37 26 159 42 192 25 11 -5 57
-45 103 -89 46 -43 91 -78 100 -78 10 1 -32 47 -103 115 l-120 115 -57 0 c-48
0 -61 -4 -82 -25 -49 -49 -137 -21 -122 39 7 27 51 56 86 56 12 0 31 -11 44
-25 20 -22 32 -25 89 -25 59 0 69 -3 94 -29 15 -15 76 -72 135 -125 l106 -96
649 0 c459 1 643 4 630 11 -12 7 -167 11 -459 10 -465 0 -470 0 -509 46 -8 10
-44 43 -79 73 -35 30 -68 60 -74 65 -6 6 -45 39 -86 75 -41 36 -86 75 -100 88
-20 18 -37 22 -88 22 -54 0 -69 -4 -94 -25 -59 -49 -125 -24 -119 45 3 45 110
60 132 19 8 -16 22 -19 86 -19 l76 0 56 -47 c31 -26 58 -50 61 -53 6 -6 145
-128 232 -203 l66 -57 448 0 447 0 34 -26 c18 -14 42 -24 53 -22 17 2 11 11
-32 45 l-53 43 -448 0 -448 0 -72 64 c-296 263 -337 296 -373 296 -50 0 -74
16 -74 48 0 31 41 62 82 62 35 0 62 -33 55 -67 -5 -23 1 -33 31 -58 38 -31
287 -250 311 -273 53 -50 43 -50 571 -51 l385 -1 68 -55 c65 -52 71 -55 125
-55 l57 1 -26 22 c-24 21 -79 67 -145 121 l-31 25 -454 3 c-420 3 -457 4 -483
21 -25 17 -119 97 -274 235 l-64 56 7 60 c3 34 13 115 21 181 8 65 19 162 24
215 36 370 51 495 64 514 12 19 85 69 249 168 70 43 118 49 156 19 33 -26 22
-63 -29 -97 -22 -15 -40 -29 -40 -31 0 -13 57 11 78 33 14 13 28 24 32 24 7 0
40 61 40 74 0 3 -11 6 -24 6 -14 0 -27 4 -31 10 -5 9 11 372 21 458 4 27 10
42 20 42 8 0 14 9 14 20 0 16 7 20 30 20 23 0 30 -4 30 -20 0 -19 7 -20 124
-20 115 0 124 1 129 20 7 28 57 28 57 0 0 -19 7 -20 159 -20 150 0 159 1 164
20 6 23 57 29 57 6 0 -21 60 -29 80 -11 9 8 25 15 35 15 39 0 -10 -31 -61 -38
l-49 -7 0 -266 0 -266 27 -35 c32 -42 76 -64 141 -71 l47 -5 0 54 c0 50 -2 55
-37 79 -21 14 -48 25 -60 25 -31 0 -71 20 -78 38 -10 28 28 48 82 43 20 -2 44
-33 39 -48 -6 -15 30 -52 51 -53 20 0 33 -35 33 -89 0 -28 6 -55 13 -60 6 -6
27 -23 45 -37 l33 -26 -6 38 c-4 22 -10 79 -13 128 -7 85 -8 89 -37 105 -16 9
-56 34 -87 54 -31 20 -68 37 -82 37 -14 0 -37 5 -51 10 -21 8 -26 16 -23 38 3
24 8 27 41 30 43 4 80 -21 73 -47 -4 -11 21 -33 82 -72 48 -31 87 -56 87 -55
0 1 -2 59 -5 130 l-5 129 -85 -2 c-47 -1 -87 -7 -90 -12 -13 -20 -65 -21 -90
-1 -24 20 -25 20 -6 41 22 24 62 27 90 6 13 -10 43 -15 87 -15 85 0 99 12 99
86 0 50 -2 54 -23 54 -55 0 -79 62 -27 68 14 2 35 8 46 13 47 24 59 10 64 -74
l5 -78 24 17 c21 15 23 22 18 75 -4 44 -2 59 8 59 8 0 15 -21 19 -57 l7 -58
-41 -35 -40 -35 0 -139 c0 -123 2 -142 21 -172 22 -36 39 -44 39 -19 0 9 12
20 28 26 22 9 34 7 67 -10 32 -17 58 -21 134 -21 82 0 99 3 128 23 18 12 33
25 33 29 0 4 -14 15 -30 23 -26 13 -37 14 -64 4 -18 -7 -45 -9 -59 -5 -50 12
-43 76 9 76 28 0 27 -2 13 39 -11 31 -11 31 -84 31 -51 0 -82 -5 -103 -17 -34
-20 -77 -11 -96 19 -23 37 58 64 99 32 14 -10 42 -14 97 -13 l78 2 0 129 0
130 -27 -5 c-33 -6 -77 9 -67 24 4 8 9 8 17 0 14 -14 54 -14 62 -1 3 5 21 10
38 10 l32 0 0 -142 0 -142 49 -31 c46 -28 58 -30 170 -36 112 -5 153 -12 166
-29 3 -4 24 -17 47 -29 39 -19 58 -21 228 -21 102 0 185 3 185 8 0 21 -37 56
-77 73 -35 15 -69 19 -157 19 -92 0 -119 4 -151 20 -21 11 -56 22 -76 24 -21
3 -47 10 -59 16 -27 14 -27 60 0 67 20 5 28 46 12 69 -4 7 -43 14 -87 16 -69
4 -87 8 -130 36 -27 18 -62 38 -77 44 -16 7 -28 19 -28 26 0 11 6 10 28 -4
110 -73 145 -86 217 -85 91 2 98 11 8 11 -61 0 -77 4 -126 33 -53 30 -70 47
-47 47 5 0 32 -14 60 -31 40 -25 61 -31 114 -32 l65 -2 3 35 c3 30 7 35 30 38
24 3 27 0 30 -34 l3 -37 163 1 c89 0 163 2 164 4 0 2 -2 24 -6 49 -8 55 5 94
33 102 19 5 21 1 21 -46 1 -29 6 -65 13 -81 11 -26 18 -30 64 -33 36 -2 54 1
63 12 25 30 115 8 108 -26 -7 -32 -60 -40 -94 -14 -20 15 -64 20 -64 7 0 -19
79 -45 150 -49 93 -5 144 -18 192 -49 34 -22 48 -24 150 -24 l113 0 17 -39
c10 -22 20 -51 24 -65 3 -14 10 -29 15 -32 26 -16 -14 -24 -117 -24 -95 0
-114 -3 -114 -15 0 -12 20 -15 118 -15 64 0 122 -4 128 -8 6 -4 20 -34 32 -67
11 -33 24 -68 28 -79 7 -18 0 -18 -149 -14 l-157 4 0 -48 0 -48 45 0 c43 0 44
1 35 25 l-10 25 130 0 129 0 10 -32 c5 -18 19 -58 30 -88 12 -30 21 -56 21
-57 0 -2 -58 -3 -129 -3 -105 0 -130 3 -135 15 -3 8 -16 15 -28 15 -18 0 -32
-14 -58 -57 -19 -32 -38 -66 -42 -75 -14 -33 -34 -18 -75 54 l-40 73 -127 3
-126 3 0 -92 0 -92 38 6 c20 3 51 8 67 12 56 12 113 -58 68 -84 -17 -9 -17
-13 0 -76 18 -67 18 -68 -4 -91 -13 -14 -19 -30 -16 -41 15 -51 81 -287 97
-348 42 -156 59 -217 62 -220 10 -9 217 -144 238 -155 13 -7 30 -18 36 -24 7
-6 44 -31 83 -55 53 -34 72 -51 76 -73 5 -19 20 -37 46 -54 21 -13 39 -29 39
-34 0 -16 66 -12 80 4 9 12 -9 75 -90 318 -56 167 -114 342 -130 389 l-27 86
169 173 c161 165 169 175 164 205 -5 26 -46 138 -85 230 -11 25 -20 50 -117
297 -68 173 -80 198 -105 208 -15 7 -30 19 -33 27 -15 39 49 58 92 27 22 -15
31 -54 12 -54 -5 0 -10 -7 -10 -15 0 -9 65 -180 146 -382 l145 -366 -39 -41
c-22 -23 -99 -102 -171 -176 -72 -74 -131 -140 -131 -146 0 -10 17 -61 179
-543 40 -118 70 -222 68 -233 -4 -15 1 -18 28 -18 18 0 38 7 45 15 15 18 25
-15 -206 652 -25 73 -44 137 -42 142 1 5 77 87 168 181 91 95 164 177 162 183
-2 7 -26 68 -54 137 -28 69 -58 145 -68 170 -32 81 -81 205 -90 225 -5 11 -28
67 -50 125 -23 58 -46 109 -51 115 -5 5 -9 17 -9 27 0 11 -15 28 -36 40 -25
15 -34 26 -32 42 4 25 49 34 84 15 31 -16 37 -35 17 -54 -18 -18 -17 -20 142
-405 42 -102 89 -219 105 -260 15 -41 40 -100 54 -130 23 -50 25 -52 25 -24 1
16 -5 36 -11 42 -10 10 -10 17 0 32 17 28 15 50 -6 50 -23 0 -42 19 -42 42 0
13 10 20 31 25 31 6 31 6 11 22 -12 9 -42 66 -67 126 -25 61 -52 124 -60 142
-8 17 -15 34 -15 37 0 3 -14 35 -30 72 -17 36 -47 109 -67 161 -35 92 -36 96
-18 109 27 20 85 17 120 -5 23 -14 41 -42 74 -117 24 -54 52 -117 62 -139 l18
-40 1 111 c0 109 0 111 -26 122 -32 15 -30 55 4 60 20 3 22 9 22 58 0 52 -1
54 -27 54 -16 0 -41 8 -58 18 -26 15 -49 16 -173 12 l-144 -5 56 -27 c65 -32
145 -38 166 -13 18 21 57 19 91 -6 36 -25 37 -37 2 -50 -22 -8 -36 -7 -61 5
-18 9 -56 16 -85 16 -29 0 -65 7 -82 16 -16 9 -128 65 -247 125 l-218 109
-182 0 c-100 0 -178 3 -174 7 4 4 89 6 189 5 l182 -3 98 -51 c66 -33 106 -48
120 -44 14 4 46 -7 88 -29 65 -34 67 -34 203 -36 91 -1 141 2 149 10 15 15 80
14 95 -1 9 -9 12 -5 12 20 l0 32 -99 0 c-75 0 -101 -4 -111 -15 -24 -29 -110
-9 -110 26 0 26 40 33 85 15 25 -11 69 -16 136 -16 99 0 99 0 99 25 l0 25
-275 0 -275 0 -113 57 -112 58 -130 5 -130 6 128 2 128 2 125 -60 125 -60 264
0 265 0 0 45 c0 48 -4 52 -34 30 -16 -12 -65 -15 -263 -15 l-243 0 -122 60
c-122 59 -124 60 -210 60 -49 0 -88 4 -88 8 0 4 18 25 39 46 l40 39 78 -6 c70
-4 89 -11 186 -61 l107 -56 173 0 c151 0 176 2 193 18 10 9 47 41 82 71 58 51
62 57 62 97 0 47 -6 60 -160 363 l-93 184 25 21 c107 91 122 97 185 74 l43
-16 0 1549 0 1549 -3200 0 -3200 0 0 -1608z m2693 1171 c14 -65 31 -145 37
-177 10 -60 39 -119 82 -169 22 -25 33 -29 99 -33 41 -3 211 -1 378 3 l303 8
28 33 c38 45 66 123 92 253 13 60 25 109 28 109 8 -1 209 -345 257 -440 24
-47 50 -112 58 -145 18 -70 20 -232 4 -322 -11 -61 -13 -65 -65 -101 -75 -52
-73 -88 2 -41 l34 21 0 -26 c0 -48 -17 -72 -64 -90 -42 -16 -56 -33 -40 -49 4
-3 19 0 35 8 37 20 49 19 49 -4 0 -33 -11 -51 -32 -51 -37 0 -98 -23 -98 -37
0 -16 22 -17 70 -3 19 5 37 6 41 2 3 -4 -4 -86 -17 -182 -28 -209 -29 -346 -8
-569 18 -189 15 -370 -11 -551 -9 -63 -19 -118 -21 -122 -3 -4 -46 -8 -96 -8
-89 0 -90 0 -84 23 22 89 27 130 18 139 -22 22 -39 -3 -61 -89 -13 -48 -43
-140 -67 -203 -39 -104 -42 -121 -37 -176 5 -58 4 -63 -20 -79 -25 -16 -67
-13 -67 5 0 20 -31 17 -55 -6 -48 -44 -90 -27 -90 38 l0 43 -44 6 c-62 8 -89
50 -58 90 7 9 34 27 60 39 80 38 92 87 58 236 -20 91 -26 104 -46 104 -24 0
-26 -16 -10 -90 8 -39 15 -73 15 -76 0 -2 -61 -4 -135 -4 -74 0 -135 3 -135 8
0 4 7 39 15 77 20 96 19 115 -4 115 -27 0 -32 -10 -52 -119 -33 -174 -21 -226
56 -251 34 -11 75 -52 75 -74 0 -27 -29 -50 -71 -55 -43 -6 -44 -7 -44 -44 0
-27 -6 -43 -19 -53 -28 -20 -41 -18 -72 11 -32 30 -28 30 -63 5 -22 -17 -32
-19 -54 -11 -34 13 -43 50 -28 110 10 42 9 51 -12 96 -32 67 -65 162 -91 265
-19 72 -26 86 -44 88 -18 3 -22 -1 -22 -25 0 -15 7 -53 15 -83 8 -30 15 -56
15 -57 0 -2 -119 -3 -265 -3 -160 0 -265 4 -265 9 0 6 16 50 36 98 60 146 73
234 84 543 11 308 25 532 42 694 l12 109 101 -7 c55 -3 126 -12 157 -20 58
-13 93 -7 72 14 -13 13 -134 35 -247 45 l-79 7 7 46 c4 26 8 49 10 51 6 5 105
-30 184 -66 76 -34 88 -35 77 -8 -6 17 -55 40 -176 85 -82 30 -86 36 -75 106
l6 44 58 -30 c32 -16 102 -58 156 -94 103 -69 115 -75 115 -52 0 20 -93 87
-212 153 -57 31 -105 58 -107 60 -7 5 19 139 49 258 16 61 66 225 113 365 46
140 93 285 103 323 10 37 21 67 25 67 3 0 17 -53 32 -117z m1482 -1342 c24
-23 49 -41 54 -41 6 0 11 -4 11 -8 0 -5 21 -31 46 -58 56 -61 160 -197 181
-238 9 -17 17 -32 18 -34 2 -2 40 5 86 14 66 13 109 15 209 10 176 -10 293
-47 428 -136 299 -199 453 -493 454 -870 1 -192 -31 -329 -114 -493 -39 -76
-131 -204 -172 -240 -12 -10 -40 -36 -63 -58 l-43 -40 0 96 0 96 -164 242
c-89 133 -186 277 -215 319 -29 43 -60 82 -71 88 -12 6 -168 10 -419 10 -220
0 -402 3 -404 8 -2 4 4 75 14 157 24 189 25 345 5 555 -21 220 -20 280 9 515
14 110 25 202 25 203 0 7 83 -57 125 -97z m-1915 -1 c-19 -154 -32 -344 -40
-615 -12 -394 -25 -471 -109 -657 l-30 -68 -117 0 -117 0 -41 -42 c-23 -24
-151 -171 -286 -327 -175 -203 -245 -291 -244 -307 0 -13 1 -55 2 -94 l2 -70
235 0 c129 0 235 -3 234 -7 0 -5 -17 -48 -37 -98 l-37 -90 -132 1 c-105 1
-145 6 -200 24 -297 95 -497 372 -519 720 -6 87 1 152 30 290 29 136 158 325
285 418 141 103 329 151 486 123 33 -6 76 -13 96 -17 l35 -6 13 83 c24 161 60
273 125 395 53 96 84 143 139 208 84 100 217 221 228 208 4 -4 3 -36 -1 -72z
m-1854 -1276 c-20 -42 -36 -77 -36 -78 0 -1 34 -26 76 -56 41 -30 105 -77 141
-104 36 -26 77 -52 92 -56 l26 -8 -30 -1 c-22 0 -59 21 -145 84 -63 46 -126
93 -140 104 -14 12 -28 21 -32 21 -15 0 -7 25 27 92 43 85 46 90 52 84 3 -3
-11 -40 -31 -82z m5638 61 c-10 -8 -44 -31 -74 -52 -30 -20 -67 -47 -82 -59
l-26 -21 55 -124 c31 -68 63 -134 71 -147 8 -12 13 -24 11 -26 -2 -3 -21 -18
-43 -35 l-39 -31 -131 2 -131 2 124 3 c115 3 126 5 157 30 19 14 34 30 34 35
0 5 -30 74 -67 154 -36 79 -64 146 -62 148 22 21 214 145 218 141 2 -3 -4 -12
-15 -20z m66 7 c0 -11 -36 -44 -95 -87 -52 -38 -95 -73 -95 -77 0 -4 29 -68
65 -143 36 -74 65 -142 65 -150 0 -8 -19 -28 -42 -45 -41 -30 -42 -30 -170
-30 -105 0 -134 -3 -156 -17 -15 -10 -30 -22 -34 -28 -5 -6 -8 -3 -8 7 0 9 16
26 35 38 30 19 48 21 152 20 65 -1 123 -1 129 -1 6 1 26 14 45 30 l34 30 -32
63 c-42 85 -103 224 -103 235 1 4 30 28 66 53 97 67 124 90 124 106 0 8 5 14
10 14 6 0 10 -8 10 -18z m155 -13 c9 -17 15 -32 13 -33 -2 -1 -26 -20 -55 -44
-28 -23 -54 -42 -58 -42 -3 0 -11 -5 -18 -10 -7 -6 -23 -18 -37 -29 -22 -17
-23 -22 -12 -45 6 -14 23 -28 37 -32 36 -9 34 -44 -3 -44 -38 0 -76 28 -62 45
6 7 8 24 5 38 -5 18 -1 30 12 41 43 36 156 116 164 116 5 0 4 12 -1 26 -20 51
-9 60 15 13z m-5810 -49 c-15 -29 -24 -57 -22 -64 2 -6 31 -29 63 -51 33 -22
92 -64 131 -93 40 -30 90 -60 110 -68 38 -13 38 -13 8 -14 -28 0 -59 15 -92
45 -6 5 -63 46 -127 90 -64 43 -116 85 -116 92 0 22 63 139 67 126 2 -6 -8
-35 -22 -63z m5275 51 c5 -11 19 -23 30 -26 24 -8 26 -30 4 -39 -28 -11 -54 3
-54 29 0 13 -3 30 -6 39 -9 23 13 20 26 -3z m435 8 c15 -23 -8 -56 -67 -96
-109 -73 -122 -86 -110 -109 24 -43 132 -274 132 -281 -1 -4 -20 -22 -43 -39
l-43 -32 -131 0 -131 1 -67 -52 c-68 -51 -89 -60 -100 -41 -3 6 1 10 9 10 8 0
45 23 81 50 l66 50 131 0 c120 0 135 2 165 23 18 12 33 29 33 38 0 9 -29 78
-65 154 -36 75 -65 140 -65 144 0 4 43 39 96 77 80 58 95 72 91 91 -4 24 7 31
18 12z m-5845 -14 c10 -12 5 -28 -24 -85 -20 -39 -35 -74 -32 -79 3 -4 48 -39
101 -77 52 -38 118 -86 147 -107 l51 -37 98 4 c105 5 108 4 116 -44 3 -25 0
-30 -23 -36 -14 -4 -88 -4 -164 -2 l-137 5 -172 129 c-196 147 -186 128 -122
249 21 40 47 75 61 82 34 17 85 16 100 -2z m512 -30 c-5 -40 -19 -64 -46 -74
-24 -10 -54 -83 -36 -89 6 -2 10 -12 10 -22 0 -19 -48 -34 -75 -24 -22 9 -18
35 6 41 26 7 62 82 48 99 -7 8 -3 27 12 58 19 41 24 45 53 43 28 -3 31 -6 28
-32z m-713 -34 c17 -11 6 -29 -22 -40 -18 -7 -75 -91 -65 -95 2 -1 26 -19 53
-42 28 -22 66 -51 85 -64 19 -13 37 -27 40 -30 3 -4 27 -22 53 -41 27 -19 65
-47 85 -62 86 -65 75 -62 221 -60 75 1 156 -1 181 -6 32 -6 -9 -9 -143 -10
l-189 -1 -61 47 c-99 75 -126 96 -234 177 -56 42 -105 81 -108 86 -3 5 4 27
16 50 18 34 19 44 9 50 -11 7 -11 11 -1 24 8 9 18 16 23 16 6 0 5 -7 -2 -15
-11 -13 -8 -15 13 -15 14 0 29 5 32 10 3 6 -1 10 -10 10 -9 0 -13 5 -10 10 8
12 16 12 34 1z m2575 -93 c2 -7 20 -58 40 -114 32 -89 35 -105 25 -133 -14
-39 0 -95 32 -132 17 -20 31 -24 87 -27 37 -2 91 -6 119 -9 49 -4 55 -3 83 25
16 17 30 40 30 51 0 15 11 26 40 37 22 9 45 25 51 36 10 18 11 18 30 -6 11
-13 35 -30 53 -36 28 -9 35 -17 40 -45 9 -46 52 -70 110 -60 22 3 69 6 103 5
55 -1 65 2 95 29 32 29 33 31 34 113 1 69 7 100 35 178 l35 95 528 3 528 2 24
-27 c30 -35 414 -605 414 -615 0 -5 -882 -8 -1960 -8 -1078 0 -1960 3 -1960 6
0 5 200 243 235 280 5 6 77 88 159 182 82 94 156 173 165 175 9 3 197 5 419 6
314 1 403 -2 406 -11z m661 1 c16 -25 -6 -60 -48 -78 -24 -10 -54 -32 -68 -48
l-24 -29 -24 29 c-13 15 -41 35 -63 44 -41 16 -58 38 -58 72 0 20 5 21 139 21
88 0 142 -4 146 -11z m2833 -175 c22 -6 31 -39 11 -46 -6 -2 26 -76 71 -167
l81 -164 -23 -24 c-13 -14 -49 -45 -81 -69 l-57 -44 -141 0 c-152 0 -128 -6
-304 76 -38 18 -85 30 -130 34 l-70 7 67 1 c63 2 77 -2 186 -53 l119 -55 126
0 127 0 75 61 c41 33 75 65 75 71 0 16 -140 301 -157 321 -15 16 -14 17 6 17
14 0 21 5 19 13 -3 6 -16 12 -29 12 -14 0 -23 -5 -21 -12 2 -15 -14 -17 -23
-3 -16 25 21 37 73 24z m-5445 -21 c-7 -2 -19 -2 -25 0 -7 3 -2 5 12 5 14 0
19 -2 13 -5z m5019 -47 c15 -21 8 -26 -37 -26 -38 0 -45 3 -45 19 0 11 6 21
13 24 17 7 61 -4 69 -17z m312 -190 c112 -50 140 -139 56 -180 -32 -15 -55
-18 -127 -14 -98 5 -173 35 -212 84 -41 52 -17 112 54 134 47 15 170 2 229
-24z m-438 3 c8 -13 -13 -36 -23 -24 -5 4 -2 10 6 13 11 4 11 6 0 13 -9 6 -10
9 -2 9 6 0 15 -5 19 -11z m-4977 -136 c56 -43 117 -89 136 -103 54 -41 190
-144 195 -150 12 -13 117 -88 139 -99 18 -10 20 -15 11 -21 -12 -8 -104 56
-266 184 -28 23 -64 50 -79 61 -16 11 -44 33 -64 49 -20 15 -70 54 -111 84
l-75 56 -167 1 c-93 0 -168 3 -168 8 0 4 78 7 173 7 l174 0 102 -77z m4569
-148 l-3 -46 -1765 -1 c-971 0 -1852 0 -1957 1 l-193 1 0 38 c0 21 3 42 7 45
3 4 886 7 1960 7 l1954 0 -3 -45z m-3172 -102 c-158 -519 -263 -772 -406 -986
-111 -167 -229 -265 -337 -283 -81 -13 -114 41 -87 142 19 75 29 93 169 304
168 255 264 440 359 692 19 51 39 105 45 121 l11 27 125 0 c116 0 126 -1 121
-17z m3204 10 c0 -5 -21 -22 -48 -40 -116 -78 -288 -132 -462 -147 -68 -6
-2681 -8 -2687 -2 -4 4 29 124 48 173 l9 23 1570 0 c863 0 1570 -3 1570 -7z
m476 -84 c69 -34 123 -64 120 -67 -3 -3 -56 21 -118 54 l-113 59 -165 5 -165
6 158 2 158 2 125 -61z m-361 -85 c202 -103 226 -114 258 -114 43 0 76 -32 57
-55 -25 -31 -94 -13 -110 29 -6 16 -52 45 -158 99 -137 69 -155 76 -200 73
-27 -2 -56 0 -63 5 -9 5 12 9 56 9 63 0 78 -5 160 -46z m-3217 -101 c2 -18 7
-33 12 -33 5 0 7 7 3 15 -9 26 26 56 60 51 36 -6 50 -18 45 -42 -3 -17 -18
-24 -90 -39 -24 -5 -28 -10 -28 -40 0 -41 3 -42 37 -15 15 12 41 20 63 20 21
0 51 7 66 15 38 20 67 19 87 -3 18 -20 12 -33 -20 -51 -26 -13 -67 -6 -84 15
-17 21 -56 17 -105 -12 -28 -16 -44 -33 -44 -45 0 -18 9 -19 155 -19 l155 0 0
110 0 110 25 0 c14 0 25 -6 26 -12 0 -7 1 -56 2 -108 2 -90 3 -95 24 -98 13
-2 33 4 45 12 29 20 72 20 92 0 23 -22 20 -31 -14 -49 -33 -17 -63 -13 -91 12
-18 15 -39 14 -51 -2 -12 -16 -9 -103 3 -111 6 -3 24 6 40 22 43 41 119 37
119 -6 0 -29 -36 -43 -90 -36 -57 8 -75 -8 -83 -74 -2 -25 -8 -53 -12 -63 -7
-17 -6 -17 24 0 19 11 31 26 31 39 0 46 74 70 109 35 11 -11 18 -27 15 -35 -7
-18 -65 -39 -86 -31 -8 3 -31 -6 -52 -20 -20 -14 -39 -25 -41 -25 -3 0 -26
-15 -52 -33 -27 -18 -73 -48 -105 -67 -31 -18 -54 -38 -52 -45 3 -6 -4 -22
-14 -35 -29 -36 -112 -25 -112 14 1 26 22 40 75 47 77 10 101 33 28 27 -99 -9
-163 -75 -163 -167 l0 -40 83 -3 c65 -2 82 -6 82 -18 0 -12 -17 -16 -82 -18
-75 -3 -83 -5 -83 -22 0 -18 7 -20 81 -20 71 0 80 -2 77 -17 -3 -15 -16 -18
-81 -21 -68 -3 -77 -5 -77 -22 0 -17 9 -19 73 -22 56 -2 72 -6 72 -18 0 -12
-16 -16 -72 -18 -64 -3 -73 -5 -73 -22 0 -17 9 -19 68 -22 59 -3 67 -5 67 -23
0 -18 -8 -20 -67 -23 -60 -3 -68 -5 -68 -22 0 -18 7 -20 65 -20 58 0 65 -2 65
-20 0 -18 -7 -20 -65 -20 -58 0 -65 -2 -65 -20 0 -16 8 -19 58 -22 49 -3 57
-6 57 -23 0 -17 -8 -20 -57 -23 -50 -3 -58 -6 -58 -22 0 -17 7 -20 55 -20 48
0 55 -2 55 -20 0 -14 -10 -22 -32 -28 -45 -11 -51 -42 -8 -42 27 0 31 -3 28
-22 -3 -20 -11 -24 -53 -28 -36 -4 -51 -10 -53 -22 -3 -14 6 -17 45 -20 40 -3
48 -6 48 -23 0 -18 -8 -20 -101 -23 -83 -2 -103 0 -107 13 -8 18 27 39 54 32
11 -3 19 0 19 6 0 20 -14 34 -35 38 -15 3 -20 13 -21 39 -1 19 -5 45 -9 56 -5
18 -1 24 24 35 34 15 41 43 14 58 -17 9 -17 10 0 28 20 23 22 44 5 61 -8 8 -8
15 0 24 7 9 11 86 12 216 0 143 4 214 14 240 7 20 17 46 21 57 4 11 3 15 -2 9
-4 -6 -29 -23 -55 -38 -57 -33 -60 -38 -69 -96 -40 -271 -52 -351 -68 -450
-47 -292 -46 -282 -23 -298 48 -32 12 -94 -54 -94 -69 0 -85 57 -26 96 25 17
30 28 41 105 6 47 16 100 21 116 4 17 16 84 25 150 9 66 23 163 31 215 7 52
18 124 23 160 6 36 16 69 23 73 7 4 96 60 198 124 102 63 194 121 205 127 11
7 42 25 68 41 l48 30 -3 85 -3 85 -152 2 c-125 3 -153 1 -153 -11 0 -7 13 -16
29 -19 16 -3 36 -13 44 -22 20 -19 64 -19 84 1 10 10 29 14 57 12 33 -2 42 -7
44 -25 2 -15 -5 -27 -23 -39 -25 -16 -28 -16 -61 -1 -19 10 -46 17 -60 17 -14
0 -38 9 -53 21 -41 31 -62 22 -78 -33 -7 -26 -18 -50 -23 -53 -18 -11 -11 -25
13 -25 12 0 28 -4 35 -9 20 -12 10 -55 -15 -66 -12 -5 -23 -18 -25 -29 -2 -14
-48 -48 -142 -107 -76 -48 -143 -92 -148 -97 -6 -6 -23 -87 -39 -182 -16 -94
-31 -175 -34 -179 -2 -5 -7 -32 -10 -61 -5 -49 -10 -58 -62 -106 -31 -29 -60
-51 -64 -48 -8 5 -182 -104 -187 -117 -2 -5 -113 -9 -246 -9 -222 0 -245 -2
-281 -20 -63 -32 -98 -24 -107 24 -9 48 100 78 132 36 15 -21 22 -21 250 -18
l235 3 84 58 c47 31 88 57 93 57 15 0 8 21 -27 81 l-34 59 34 0 35 0 0 111 c0
96 3 116 21 145 11 19 25 32 30 28 5 -3 9 -68 9 -145 l0 -139 29 0 c28 0 28 1
45 93 9 50 21 112 26 137 5 25 14 78 21 118 12 79 24 96 87 128 20 10 44 24
52 31 8 6 26 18 40 25 67 36 130 85 130 101 0 9 -10 27 -21 38 -21 21 -23 21
-56 5 -18 -9 -59 -16 -90 -16 -51 0 -55 -1 -50 -21 4 -14 -2 -29 -19 -46 -28
-28 -46 -24 -22 4 9 10 19 34 23 53 13 61 22 70 70 70 46 0 68 14 35 23 -13 3
-20 14 -20 30 0 14 -3 33 -7 43 -5 14 -3 16 13 10 10 -5 29 -10 41 -11 12 -2
34 -6 50 -9 25 -6 31 -3 41 19 7 14 12 28 12 30 0 3 -31 5 -70 5 -43 0 -70 4
-70 11 0 6 25 9 68 8 52 -2 67 1 67 12 0 10 -15 14 -58 15 -31 1 -60 4 -64 8
-3 3 0 6 8 7 8 0 35 1 61 2 64 3 61 21 -4 26 l-53 5 55 5 c43 5 56 10 58 25 3
15 0 17 -14 11 -11 -4 -35 -10 -54 -12 -32 -3 -30 -1 18 17 l52 21 0 60 c0 60
0 60 28 57 22 -2 28 -8 30 -35z m1672 23 c0 -2 -25 -20 -55 -40 -48 -31 -54
-40 -49 -60 11 -44 -55 -62 -97 -26 l-24 20 24 21 c14 11 33 18 43 16 11 -3
42 11 76 34 49 34 82 48 82 35z m-1142 -78 c16 -16 15 -23 -4 -42 -19 -20 -78
-21 -93 -2 -9 11 -10 20 -1 35 12 24 77 30 98 9z m3363 -785 c17 -39 48 -129
49 -140 0 -2 -58 -3 -128 -3 -86 0 -132 4 -140 12 -12 12 -34 -5 -108 -79
l-22 -22 48 -148 c27 -81 70 -215 95 -298 42 -134 51 -154 86 -186 41 -39 48
-63 25 -95 -23 -31 -99 -25 -136 11 -33 32 -38 60 -15 92 13 19 12 28 -6 84
-52 165 -79 250 -99 319 -12 41 -33 107 -46 147 -13 39 -24 79 -24 88 0 9 39
53 86 98 83 80 85 83 74 111 -20 52 -12 56 120 56 l121 0 20 -47z"/>
<path d="M2827 5416 c-111 -40 -196 -155 -197 -267 -1 -99 62 -205 151 -254
48 -27 63 -30 139 -30 99 0 142 17 204 80 57 58 80 116 80 200 -1 86 -18 129
-79 194 -76 81 -198 112 -298 77z m186 -51 c124 -52 181 -198 123 -320 -43
-91 -117 -138 -216 -138 -177 0 -291 179 -216 338 27 57 55 86 112 115 48 24
146 26 197 5z"/>
<path d="M2910 5227 c-32 -17 -44 -40 -36 -71 13 -53 92 -60 114 -10 24 51
-29 106 -78 81z m45 -52 c0 -13 -8 -21 -22 -23 -17 -3 -23 2 -23 16 0 10 3 22
7 26 13 13 38 1 38 -19z"/>
<path d="M3590 5413 c-158 -55 -233 -238 -155 -381 52 -95 132 -145 235 -145
158 -1 274 115 274 273 0 183 -182 312 -354 253z m191 -61 c134 -70 159 -249
51 -355 -92 -90 -237 -87 -320 8 -83 94 -83 216 1 304 72 75 175 92 268 43z"/>
<path d="M3639 5199 c-22 -22 -19 -55 9 -76 22 -18 46 -16 65 5 22 24 21 55
-1 75 -25 23 -48 21 -73 -4z m51 -34 c0 -8 -7 -15 -15 -15 -8 0 -15 7 -15 15
0 8 7 15 15 15 8 0 15 -7 15 -15z"/>
<path d="M3276 4885 c-32 -7 -62 -19 -67 -26 -23 -37 9 -136 46 -145 38 -10
57 3 108 71 79 104 55 132 -87 100z m85 -42 c-19 -36 -83 -103 -92 -97 -5 3
-16 21 -24 41 -23 53 -5 67 93 72 28 1 31 -1 23 -16z"/>
<path d="M217 3383 c-26 -25 19 -49 59 -31 38 17 30 38 -14 38 -21 0 -42 -3
-45 -7z"/>
<path d="M690 3181 c0 -15 16 -22 34 -15 25 9 19 24 -9 24 -14 0 -25 -4 -25
-9z"/>
<path d="M5839 2797 c-80 -54 -20 -136 123 -167 93 -21 188 12 188 66 0 91
-219 163 -311 101z m208 -21 c50 -23 71 -47 67 -73 -1 -7 -2 -18 -3 -24 0 -5
-18 -17 -38 -26 -63 -26 -162 -3 -220 50 -30 27 -29 51 3 76 38 30 123 28 191
-3z"/>
<path d="M5898 2777 c-39 -15 -38 -58 1 -86 38 -27 111 -37 151 -21 23 10 30
19 30 40 0 25 -8 32 -54 54 -58 28 -85 30 -128 13z m93 -37 c27 -15 24 -40 -5
-40 -26 0 -51 24 -41 40 8 13 21 13 46 0z"/>
<path d="M5615 2130 c-10 -16 4 -30 31 -30 26 0 31 9 12 28 -15 15 -35 16 -43
2z"/>
<path d="M2202 2167 c-15 -18 -5 -27 30 -27 23 0 29 4 26 18 -4 21 -41 28 -56
9z"/>
<path d="M2605 1980 c-4 -7 -3 -16 3 -22 14 -14 57 -6 57 12 0 18 -50 26 -60
10z"/>
<path d="M2340 1905 c-12 -14 -11 -18 1 -26 23 -15 54 -6 54 16 0 26 -37 32
-55 10z"/>
<path d="M2603 1864 c-5 -14 11 -34 27 -34 3 0 11 4 19 9 19 12 6 41 -19 41
-11 0 -23 -7 -27 -16z"/>
<path d="M2094 1756 c1 -24 41 -35 59 -17 15 15 -3 32 -35 35 -20 2 -25 -1
-24 -18z"/>
<path d="M2348 1697 l-117 -72 42 -3 c93 -7 152 25 181 99 9 23 15 43 13 45
-1 2 -55 -29 -119 -69z"/>
<path d="M2594 1745 c-8 -19 3 -35 25 -35 22 0 45 25 36 40 -9 15 -55 12 -61
-5z"/>
<path d="M2213 1513 c-20 -8 -15 -40 7 -46 10 -3 27 1 37 9 17 13 17 15 -1 29
-21 16 -24 16 -43 8z"/>
<path d="M1707 1013 c-4 -3 -7 -11 -7 -17 0 -6 5 -5 12 2 6 6 9 14 7 17 -3 3
-9 2 -12 -2z"/>
<path d="M844 806 c-12 -30 4 -49 33 -41 52 13 55 48 5 53 -22 2 -34 -2 -38
-12z"/>
<path d="M1793 634 c-18 -8 -16 -43 2 -50 8 -4 27 -3 41 0 19 5 25 12 22 29
-3 22 -37 33 -65 21z"/>
<path d="M3645 2090 c-10 -16 4 -30 30 -30 32 0 40 16 16 29 -25 14 -38 14
-46 1z"/>
<path d="M2617 2104 c-17 -17 -5 -34 24 -34 24 0 30 4 27 18 -3 17 -38 29 -51
16z"/>
<path d="M5836 434 c-8 -21 -8 -20 10 -38 23 -23 70 -21 77 3 10 40 -72 73
-87 35z"/>
<path d="M6285 3311 c-11 -19 15 -41 51 -41 36 0 47 9 35 28 -11 18 -77 27
-86 13z"/>
<path d="M6349 3233 l-46 -38 46 -88 46 -88 3 73 c2 56 0 75 -13 84 -19 14
-20 34 0 34 10 0 15 10 15 30 0 17 -1 30 -3 30 -1 0 -23 -17 -48 -37z"/>
<path d="M560 2575 c-10 -12 -9 -16 4 -21 22 -8 46 2 46 21 0 19 -34 20 -50 0z"/>
<path d="M0 2410 c0 -6 108 -10 303 -10 291 0 305 -1 322 -20 10 -11 30 -20
45 -20 58 0 78 -53 25 -66 -46 -11 -70 -1 -70 29 0 18 -9 36 -24 48 -22 18
-42 19 -312 19 l-289 0 0 -90 0 -90 356 0 356 0 37 -30 c20 -17 42 -36 50 -43
55 -46 57 -47 264 -47 l198 0 24 26 c14 15 25 38 25 50 l0 24 -155 0 -155 0
-84 68 c-46 37 -111 88 -145 115 l-60 47 -356 0 c-230 0 -355 -4 -355 -10z"/>
<path d="M647 2333 c-11 -11 -8 -20 9 -27 19 -7 57 11 49 25 -7 10 -48 12 -58
2z"/>
<path d="M6113 2284 c-7 -18 14 -35 37 -31 23 4 18 29 -8 38 -17 7 -24 5 -29
-7z"/>
<path d="M5924 2224 c76 -38 76 -37 76 -26 0 4 -17 14 -37 21 -21 8 -43 20
-51 27 -7 8 -23 14 -35 13 -14 0 3 -13 47 -35z"/>
<path d="M6322 2203 c4 -23 58 -31 58 -10 0 15 -20 27 -47 27 -8 0 -13 -7 -11
-17z"/>
<path d="M0 2175 c0 -13 45 -15 348 -15 341 0 349 0 373 -21 13 -12 42 -36 64
-54 l40 -32 197 1 c141 1 200 4 209 13 10 10 -17 12 -127 12 -76 0 -168 0
-204 0 -69 1 -64 -1 -158 82 l-34 29 -354 0 c-308 0 -354 -2 -354 -15z"/>
<path d="M3861 2161 c-17 -11 -5 -31 19 -31 24 0 36 20 19 31 -8 5 -16 9 -19
9 -3 0 -11 -4 -19 -9z"/>
<path d="M0 2142 c0 -16 123 -23 385 -21 l254 1 63 -51 c62 -51 63 -51 133
-50 97 1 132 17 39 18 -71 1 -72 1 -139 55 l-68 54 -334 1 c-192 1 -333 -2
-333 -7z"/>
<path d="M2822 1953 c-16 -261 -16 -283 3 -283 13 0 15 33 15 240 0 132 -1
240 -3 240 -2 0 -9 -89 -15 -197z"/>
<path d="M2904 2141 c-2 -2 -4 -109 -4 -238 l0 -233 125 0 125 0 0 238 0 237
-121 0 c-66 0 -122 -2 -125 -4z"/>
<path d="M3210 1905 l0 -235 160 0 160 0 0 219 c0 121 -3 226 -6 235 -5 14
-29 16 -160 16 l-154 0 0 -235z"/>
<path d="M5275 2130 c-10 -16 4 -30 31 -30 27 0 33 24 8 34 -22 8 -32 8 -39
-4z"/>
<path d="M6240 2125 c0 -18 48 -31 62 -17 16 16 0 32 -33 32 -19 0 -29 -5 -29
-15z"/>
<path d="M0 1995 l0 -115 183 0 183 0 74 38 c54 26 76 43 78 58 5 34 76 57
111 35 34 -22 -34 -83 -75 -67 -9 3 -46 -11 -89 -34 l-73 -40 -196 0 c-124 0
-196 -4 -196 -10 0 -6 88 -10 245 -10 l245 0 57 31 c132 72 136 73 190 71 33
-1 62 3 76 12 12 8 25 15 29 16 19 2 38 13 38 22 0 5 -29 8 -67 7 -66 -2 -66
-2 -131 49 l-66 52 -308 0 -308 0 0 -115z"/>
<path d="M4738 2103 c7 -3 16 -2 19 1 4 3 -2 6 -13 5 -11 0 -14 -3 -6 -6z"/>
<path d="M4853 2103 c37 -2 96 -2 130 0 34 2 4 3 -68 3 -71 0 -99 -1 -62 -3z"/>
<path d="M5063 2095 c6 -13 -14 -15 -157 -15 -89 0 -165 -3 -168 -6 -10 -9 11
-68 29 -81 12 -9 71 -13 207 -13 l191 -1 60 -29 c56 -28 66 -30 183 -30 137 0
149 8 73 47 -36 18 -60 22 -147 22 -123 1 -164 15 -233 80 -24 23 -41 35 -38
26z"/>
<path d="M5158 2103 c7 -3 16 -2 19 1 4 3 -2 6 -13 5 -11 0 -14 -3 -6 -6z"/>
<path d="M5195 2070 c3 -4 14 -10 25 -13 11 -3 18 -2 15 3 -3 4 -14 10 -25 13
-11 3 -18 2 -15 -3z"/>
<path d="M6143 2023 c-10 -24 32 -53 78 -53 33 0 39 3 39 21 0 32 -25 49 -70
49 -29 0 -42 -5 -47 -17z"/>
<path d="M6372 2018 c6 -18 28 -21 28 -4 0 9 -7 16 -16 16 -9 0 -14 -5 -12
-12z"/>
<path d="M550 1979 c0 -16 5 -20 27 -17 17 2 29 10 31 21 3 13 -3 17 -27 17
-25 0 -31 -4 -31 -21z"/>
<path d="M3667 1982 c-28 -6 -16 -37 16 -40 21 -3 27 1 27 16 0 22 -15 30 -43
24z"/>
<path d="M4675 1971 c-9 -16 1 -28 30 -33 24 -5 25 -4 12 15 -16 25 -33 32
-42 18z"/>
<path d="M600 1890 l-95 -49 -252 -1 -253 0 0 -50 0 -50 399 0 398 0 6 88 c7
101 0 112 -67 112 -29 0 -69 -15 -136 -50z"/>
<path d="M4972 1930 c154 -9 201 -27 247 -97 17 -26 31 -50 31 -55 0 -4 72 -8
160 -8 l160 0 0 49 c0 28 -5 53 -11 56 -5 4 -75 6 -154 6 -133 -2 -148 0 -187
21 -24 13 -44 26 -46 31 -2 4 -76 6 -165 5 l-162 -1 127 -7z"/>
<path d="M4032 1903 c2 -12 12 -18 28 -18 16 0 26 6 28 18 3 13 -3 17 -28 17
-25 0 -31 -4 -28 -17z"/>
<path d="M4350 1871 c0 -6 13 -25 29 -43 l29 -33 138 -3 c131 -3 164 -11 194
-42 3 -3 20 -13 38 -22 29 -15 62 -18 229 -18 180 0 194 1 191 18 -3 15 -24
17 -213 22 l-210 5 -63 38 c-63 37 -64 37 -175 37 -104 0 -115 2 -150 25 -20
14 -37 21 -37 16z"/>
<path d="M1160 1824 c-168 -97 -242 -134 -269 -134 l-31 0 0 -85 c0 -70 3 -85
15 -85 15 0 55 76 55 104 0 6 8 18 18 26 20 17 197 120 206 120 15 0 4 -21
-16 -30 -13 -5 -57 -29 -98 -53 -71 -41 -76 -46 -95 -100 -16 -43 -29 -63 -53
-77 -27 -17 -45 -50 -27 -50 5 0 61 29 109 57 12 8 57 13 109 13 l87 0 2 103
c1 56 2 111 2 122 1 11 11 37 23 58 12 20 19 37 15 37 -4 0 -27 -12 -52 -26z"/>
<path d="M3655 1839 c-4 -6 -1 -15 6 -20 20 -13 54 -6 54 11 0 18 -50 26 -60
9z"/>
<path d="M4255 1790 c-11 -17 5 -30 36 -30 22 0 29 5 29 20 0 15 -7 20 -29 20
-17 0 -33 -4 -36 -10z"/>
<path d="M5260 1733 c0 -23 1 -23 155 -23 147 0 155 1 155 20 0 18 -9 19 -155
22 -155 3 -155 3 -155 -19z"/>
<path d="M5630 1731 c0 -12 5 -21 10 -21 6 0 10 6 10 14 0 8 -4 18 -10 21 -5
3 -10 -3 -10 -14z"/>
<path d="M0 1720 c0 -6 140 -10 400 -10 260 0 400 4 400 10 0 7 -140 10 -400
10 -260 0 -400 -3 -400 -10z"/>
<path d="M3671 1721 c-21 -13 -5 -41 23 -41 30 0 42 16 26 35 -14 17 -29 19
-49 6z"/>
<path d="M4420 1680 c-34 -29 -38 -29 -148 -30 -71 0 -119 -4 -132 -12 -18
-11 -13 -14 45 -25 36 -6 82 -22 102 -34 27 -17 49 -22 85 -20 43 2 49 0 60
-24 11 -24 10 -29 -10 -45 -21 -17 -22 -22 -12 -94 10 -71 10 -76 -11 -97 -20
-20 -21 -27 -16 -223 5 -215 10 -246 36 -246 28 0 30 -10 10 -45 -21 -35 -21
-34 0 -185 19 -130 17 -126 90 -175 38 -24 73 -50 79 -57 5 -7 15 -44 21 -83
18 -106 41 -258 41 -272 0 -14 30 -19 30 -5 0 4 -14 96 -31 204 l-32 197 -53
38 c-58 42 -54 30 -85 228 -11 72 -23 141 -25 155 -2 14 -6 41 -8 60 -2 19 -9
67 -16 105 -6 39 -14 90 -17 115 l-5 46 70 54 c79 61 76 51 50 177 -9 40 -16
53 -33 57 -44 11 -43 69 0 80 29 7 80 -15 89 -39 3 -9 -3 -24 -14 -35 -20 -20
-20 -24 -6 -103 l14 -82 -26 -23 c-15 -13 -42 -36 -61 -50 -62 -49 -60 -45
-46 -114 7 -35 20 -112 29 -173 34 -229 58 -371 67 -395 6 -14 31 -39 57 -57
l46 -32 17 -98 c10 -54 25 -149 35 -210 l18 -113 61 0 61 0 -4 63 c-5 90 24
141 103 182 50 26 69 30 134 29 99 -1 174 -30 244 -94 53 -49 97 -120 97 -159
0 -18 6 -21 38 -21 l39 0 -1 42 c-1 37 2 43 25 52 52 18 119 -22 119 -71 0
-22 3 -23 90 -23 50 0 90 3 90 7 0 4 -7 32 -16 62 l-16 56 -177 116 -176 116
-28 109 c-16 60 -44 168 -62 239 -19 72 -44 167 -56 212 -19 73 -25 84 -54
102 -26 15 -35 29 -40 58 -10 59 -25 92 -46 98 -11 4 -27 18 -36 31 -15 23
-15 27 0 41 9 10 31 16 51 15 l36 -1 0 84 0 85 -62 0 c-67 0 -65 1 -171 -91
-29 -26 -30 -28 -19 -70 10 -41 33 -139 81 -349 11 -47 30 -134 43 -194 l23
-109 51 -34 c44 -29 52 -40 63 -84 8 -29 20 -53 30 -56 45 -16 66 -64 39 -91
-17 -17 -79 -15 -105 3 -30 21 -34 51 -11 80 15 20 18 34 13 65 -6 33 -14 44
-56 71 -27 17 -49 33 -49 36 0 3 -22 101 -49 217 -27 116 -53 229 -57 251 -4
22 -8 45 -10 50 -23 96 -41 190 -38 199 3 6 37 37 75 69 l70 57 70 0 c39 0 69
4 69 10 0 6 -34 10 -82 10 -76 0 -86 -3 -114 -28 -17 -15 -54 -45 -82 -67 -32
-25 -51 -48 -52 -61 0 -12 9 -63 20 -115 11 -52 36 -166 55 -254 64 -303 80
-358 103 -366 26 -10 44 -43 40 -71 -7 -47 -117 -38 -133 11 -9 28 3 61 21 61
18 0 17 6 -38 255 -22 99 -43 198 -48 220 -37 179 -50 249 -50 264 0 10 28 42
62 72 115 100 112 99 210 99 52 0 88 4 88 10 0 6 -41 10 -103 10 l-103 0 -45
-37 c-24 -21 -53 -46 -64 -56 -11 -11 -30 -26 -42 -34 -20 -13 -23 -24 -23
-81 0 -77 31 -242 45 -242 6 0 10 -21 10 -47 0 -27 17 -129 38 -227 l38 -179
-35 -36 c-20 -20 -36 -44 -36 -52 0 -37 22 -75 50 -87 25 -11 30 -20 30 -47 0
-25 -5 -34 -22 -39 -89 -23 -158 37 -102 89 22 21 24 27 15 64 -9 40 -7 43 27
75 l35 34 -11 73 c-13 83 -52 282 -57 287 -1 2 -13 -13 -25 -32 -12 -20 -25
-36 -28 -36 -6 0 -81 126 -90 151 -2 5 10 9 27 9 l31 0 0 271 c0 255 -1 273
-20 308 -33 58 -66 71 -183 71 -98 -1 -103 -2 -137 -30z"/>
<path d="M0 1590 l0 -100 91 0 c81 0 95 3 144 30 47 26 64 30 132 30 49 1 87
6 103 15 49 28 111 9 97 -29 -16 -40 -108 -55 -121 -20 -4 10 -25 14 -83 14
-68 0 -84 -4 -128 -30 -46 -27 -58 -30 -142 -30 -55 0 -93 -4 -93 -10 0 -6 49
-10 128 -10 112 0 132 3 169 22 33 18 47 20 69 13 37 -14 40 -30 10 -60 -31
-31 -90 -35 -107 -7 -8 13 -22 17 -62 15 -29 -1 -87 -2 -129 -3 l-78 0 0 -80
0 -80 218 0 c162 0 223 4 242 13 23 13 61 34 262 148 l78 44 0 108 0 107 -400
0 -400 0 0 -100z"/>
<path d="M4067 1683 c-4 -3 -7 -15 -7 -25 0 -23 48 -25 57 -2 9 23 -32 45 -50
27z"/>
<path d="M4790 1680 c0 -22 55 -29 229 -28 169 1 181 2 181 19 0 18 -12 19
-205 19 -133 0 -205 -4 -205 -10z"/>
<path d="M5260 1670 c0 -20 5 -20 152 -18 136 3 153 5 156 21 3 16 -9 17 -152
17 -150 0 -156 -1 -156 -20z"/>
<path d="M5634 1679 c-8 -14 11 -33 25 -25 6 4 11 11 11 16 0 13 -29 20 -36 9z"/>
<path d="M3935 1635 c17 -130 26 -225 32 -345 6 -148 4 -142 79 -193 47 -32
42 -11 74 -302 11 -99 22 -189 25 -200 2 -12 24 -35 48 -52 39 -27 45 -36 50
-78 2 -27 11 -52 18 -56 8 -5 20 -12 27 -17 7 -5 18 -39 25 -77 8 -43 18 -70
27 -73 27 -8 50 -35 50 -57 0 -54 -87 -76 -128 -32 -29 31 -28 61 3 86 24 18
25 24 19 73 -6 44 -13 58 -40 81 -28 23 -34 36 -34 67 0 38 -8 47 -89 107 -2
2 -10 56 -17 120 -7 65 -21 177 -30 248 -18 135 -18 135 -76 170 l-28 16 0
-30 c0 -25 8 -36 39 -57 37 -24 40 -30 46 -82 3 -32 10 -93 15 -137 5 -44 12
-118 15 -165 7 -87 17 -108 71 -138 10 -6 18 -30 23 -71 6 -53 12 -65 41 -89
27 -23 32 -33 27 -53 -13 -52 -84 -62 -127 -19 -27 27 -25 46 6 75 24 23 26
29 20 79 -6 46 -12 58 -45 84 l-37 30 -18 184 c-10 100 -20 201 -22 223 -3 25
-13 47 -27 59 -22 18 -22 18 -25 -12 -2 -20 3 -37 16 -50 22 -22 26 -42 47
-252 20 -206 23 -220 42 -220 20 0 42 -29 43 -56 0 -19 -19 -34 -61 -47 -19
-6 -77 26 -85 47 -7 19 13 56 31 56 16 0 18 30 7 113 l-7 49 -30 -51 c-16 -28
-32 -51 -35 -51 -11 0 -91 143 -86 155 2 8 15 11 30 8 l26 -5 0 126 0 126 -27
0 c-46 0 -71 11 -77 33 -6 25 10 57 30 57 10 0 4 10 -16 30 -16 16 -30 33 -30
38 0 11 30 38 50 44 10 4 6 8 -13 13 -39 10 -54 41 -31 66 9 10 24 19 33 19
10 0 6 7 -11 18 -16 9 -28 20 -28 24 0 15 -21 8 -46 -15 l-25 -23 26 -12 c35
-16 34 -56 -2 -76 -17 -9 -22 -15 -12 -16 18 0 49 -31 49 -48 0 -7 -10 -22
-22 -34 -14 -14 -18 -23 -10 -26 19 -6 42 -32 42 -47 0 -25 -31 -45 -68 -45
-40 0 -56 -9 -157 -87 l-68 -53 -143 0 -144 0 0 -125 0 -125 28 0 c62 0 94
-57 52 -95 -11 -10 -17 -22 -14 -26 3 -5 67 -9 143 -9 115 0 141 3 152 16 24
29 58 36 95 18 26 -13 34 -22 34 -44 0 -55 -79 -82 -117 -40 -17 17 -33 19
-163 20 -80 1 -150 1 -156 0 -9 0 -34 -41 -34 -54 0 -2 78 -3 173 -2 189 1
188 1 268 -65 26 -22 50 -39 53 -39 3 0 6 10 6 23 0 30 11 44 41 55 55 21 119
-20 106 -68 -6 -22 -8 -19 148 -137 55 -41 110 -83 123 -94 20 -18 39 -19 253
-19 l231 0 -4 38 c-3 20 -15 99 -29 176 l-24 139 -77 55 -77 56 -10 60 c-5 34
-13 87 -17 119 -7 61 -15 70 -31 35 -9 -21 -14 -16 -56 57 -26 44 -47 83 -47
87 0 5 14 8 30 8 l30 0 -2 313 c-3 311 -3 312 -27 346 -31 42 -92 70 -156 71
-64 0 -143 36 -179 81 l-26 34 5 -40z"/>
<path d="M2887 1610 c-9 -31 -10 -50 -3 -62 13 -22 -18 -58 -51 -58 -22 0
-125 -44 -167 -72 -55 -36 -56 -38 -67 -189 -28 -380 -34 -520 -24 -530 6 -6
5 -16 -3 -29 -6 -11 -12 -37 -12 -57 1 -36 6 -43 92 -111 l91 -72 173 0 c104
0 175 4 179 10 3 6 17 10 31 10 19 0 25 5 22 18 -3 15 -22 17 -201 19 l-198 2
-47 37 c-68 54 -91 82 -87 107 2 12 6 78 9 147 16 323 28 497 36 516 7 18 69
64 233 173 30 20 37 31 37 57 0 39 19 52 69 48 71 -4 64 -84 -7 -84 -15 0 -56
-19 -92 -43 -243 -161 -220 -138 -221 -221 0 -39 -8 -190 -18 -336 -10 -146
-16 -270 -13 -277 2 -7 29 -32 59 -57 l55 -46 194 0 194 0 0 150 0 150 -101 0
c-86 0 -105 -3 -126 -20 -14 -11 -38 -20 -52 -20 -34 0 -71 26 -71 49 0 21 30
51 51 51 8 0 5 6 -9 16 -41 29 -46 51 -16 79 l28 26 -22 15 c-29 20 -28 48 4
73 24 19 24 20 6 30 -33 18 -34 49 -1 73 l29 21 -23 11 c-35 18 -34 52 3 71
33 17 63 13 91 -12 12 -10 41 -13 114 -11 l97 3 -2 190 c0 104 -2 190 -3 191
-1 1 -57 4 -125 6 l-122 3 -13 -45z"/>
<path d="M3210 1461 l0 -201 133 0 132 1 77 57 c63 46 78 63 80 87 2 24 10 32
37 41 l34 11 -27 7 c-32 8 -102 69 -122 107 -8 16 -14 39 -14 54 l0 25 -122 1
c-68 0 -142 2 -165 5 l-43 5 0 -200z"/>
<path d="M2635 1620 c-35 -38 16 -79 74 -59 36 13 44 30 25 58 -20 28 -74 28
-99 1z"/>
<path d="M4820 1520 c0 -60 4 -110 9 -110 5 0 41 27 80 60 l72 60 109 0 110 0
0 50 0 50 -190 0 -190 0 0 -110z"/>
<path d="M5260 1578 l0 -53 155 3 155 3 0 49 0 50 -155 0 -155 0 0 -52z"/>
<path d="M480 1545 c-10 -12 -10 -19 -2 -27 15 -15 62 5 62 27 0 20 -44 20
-60 0z"/>
<path d="M2956 1545 c-9 -25 1 -35 35 -35 26 0 30 3 27 23 -4 28 -52 37 -62
12z"/>
<path d="M4352 1528 c3 -26 46 -38 58 -17 11 16 -13 39 -40 39 -16 0 -21 -5
-18 -22z"/>
<path d="M2840 1519 c0 -5 5 -7 10 -4 6 3 10 8 10 11 0 2 -4 4 -10 4 -5 0 -10
-5 -10 -11z"/>
<path d="M940 1477 c-40 -23 -50 -33 -37 -35 13 -3 17 -10 14 -23 -5 -18 1
-19 106 -19 132 1 147 8 147 69 l0 41 -87 0 c-81 0 -93 -3 -143 -33z"/>
<path d="M4518 1503 c-26 -6 -22 -40 4 -47 32 -8 56 17 38 38 -7 9 -15 15 -19
15 -3 -1 -14 -3 -23 -6z"/>
<path d="M5260 1500 c0 -6 58 -10 155 -10 97 0 155 4 155 10 0 6 -58 10 -155
10 -97 0 -155 -4 -155 -10z"/>
<path d="M5630 1500 c0 -5 23 -10 51 -10 31 0 48 4 44 10 -3 6 -26 10 -51 10
-24 0 -44 -4 -44 -10z"/>
<path d="M305 1457 c-10 -8 -15 -19 -11 -25 10 -17 51 -15 66 3 25 30 -18 48
-55 22z"/>
<path d="M5260 1460 c0 -6 58 -10 155 -10 97 0 155 4 155 10 0 6 -58 10 -155
10 -97 0 -155 -4 -155 -10z"/>
<path d="M5630 1460 c0 -5 25 -10 55 -10 30 0 55 5 55 10 0 6 -25 10 -55 10
-30 0 -55 -4 -55 -10z"/>
<path d="M2603 1429 c-30 -15 -48 -33 -62 -63 -20 -40 -21 -60 -21 -350 0
-310 12 -401 23 -174 3 68 13 218 23 334 l17 212 30 18 c16 11 39 25 51 31 20
12 20 13 1 13 -11 0 -39 -9 -62 -21z"/>
<path d="M3738 1434 c27 -19 28 -28 2 -54 -19 -19 -19 -20 4 -43 l23 -23 26
22 26 22 -24 16 c-27 18 -32 45 -13 64 9 9 3 12 -27 12 -39 0 -39 0 -17 -16z"/>
<path d="M3666 1427 c-17 -13 -17 -14 -1 -30 18 -19 25 -20 49 -11 20 8 20 18
0 38 -19 19 -25 20 -48 3z"/>
<path d="M3800 1411 c0 -22 28 -35 54 -25 16 6 16 8 0 25 -23 25 -54 25 -54 0z"/>
<path d="M710 1405 c-7 -8 -17 -15 -22 -15 -5 0 -32 -15 -61 -33 -29 -18 -82
-50 -119 -70 l-66 -37 -221 0 c-190 0 -221 -2 -221 -15 0 -13 33 -15 233 -15
128 0 237 4 242 9 6 5 30 20 55 33 54 30 166 95 197 114 14 9 20 20 17 29 -8
19 -18 19 -34 0z"/>
<path d="M1161 1384 c0 -11 3 -14 6 -6 3 7 2 16 -1 19 -3 4 -6 -2 -5 -13z"/>
<path d="M4382 1350 c0 -19 2 -27 5 -17 2 9 2 25 0 35 -3 9 -5 1 -5 -18z"/>
<path d="M740 1361 c0 -5 -9 -13 -21 -16 -11 -4 -71 -36 -132 -73 -62 -36
-121 -67 -132 -68 -11 -1 -118 -3 -237 -3 l-218 -1 0 -25 0 -25 236 0 237 0
91 52 c50 28 98 57 106 63 8 7 35 23 60 36 25 13 47 24 48 26 2 1 1 11 -3 22
-6 21 -35 30 -35 12z"/>
<path d="M3855 1360 c-3 -5 3 -10 14 -10 12 0 21 5 21 10 0 6 -6 10 -14 10 -8
0 -18 -4 -21 -10z"/>
<path d="M6377 1363 c-11 -10 -8 -20 8 -27 10 -4 15 1 15 14 0 20 -11 26 -23
13z"/>
<path d="M3600 1329 c-102 -87 -106 -89 -257 -89 l-133 0 0 -40 0 -40 130 0
c128 0 152 5 189 38 7 7 26 21 40 30 44 28 71 55 65 64 -9 15 6 45 29 56 l22
11 -25 0 c-14 0 -41 -13 -60 -30z"/>
<path d="M3663 1314 c-7 -19 14 -35 42 -32 12 2 21 12 23 26 3 19 -1 22 -28
22 -19 0 -33 -6 -37 -16z"/>
<path d="M3810 1311 c0 -26 15 -34 46 -27 15 4 24 14 24 26 0 16 -7 20 -35 20
-28 0 -35 -4 -35 -19z"/>
<path d="M3887 1277 c-18 -18 -18 -19 0 -32 16 -12 18 -11 21 6 6 36 -2 46
-21 26z"/>
<path d="M2857 1273 c-9 -9 -9 -43 1 -44 4 0 15 -2 24 -4 22 -4 42 20 34 40
-5 15 -47 21 -59 8z"/>
<path d="M3576 1205 l-89 -65 -139 0 -138 0 0 -45 0 -45 133 0 132 0 86 65
c75 56 86 68 82 89 -4 17 1 28 16 38 21 13 28 28 14 28 -5 0 -48 -30 -97 -65z"/>
<path d="M5357 1243 c-14 -14 -6 -41 14 -46 41 -11 64 14 37 41 -13 13 -41 16
-51 5z"/>
<path d="M2930 1219 l-24 -21 24 -19 c21 -15 42 -19 121 -19 88 0 97 2 102 20
3 11 3 29 0 40 -5 18 -14 20 -102 20 -82 -1 -100 -4 -121 -21z"/>
<path d="M3676 1221 c-12 -20 6 -42 33 -39 37 4 37 42 -1 46 -14 2 -29 -1 -32
-7z"/>
<path d="M3820 1210 c0 -11 3 -20 8 -21 4 0 15 -2 24 -4 20 -4 43 20 33 35 -3
5 -19 10 -36 10 -22 0 -29 -5 -29 -20z"/>
<path d="M5286 1178 c-20 -39 -20 -37 3 -31 25 6 78 -22 86 -47 4 -12 0 -26
-10 -37 -25 -24 -21 -41 114 -523 10 -36 24 -86 31 -111 12 -46 14 -48 185
-160 l174 -114 22 -77 c14 -46 28 -78 36 -78 7 0 13 7 13 15 0 8 9 20 20 27
39 25 17 72 -52 113 -27 17 -72 46 -98 65 -27 19 -97 65 -155 103 -72 46 -109
76 -116 95 -14 34 -44 143 -109 391 l-51 193 20 22 c18 19 18 26 8 72 -12 51
-31 84 -49 84 -5 0 -16 7 -24 15 -22 22 -31 19 -48 -17z"/>
<path d="M2862 1169 c-26 -10 -25 -27 1 -43 18 -12 47 0 55 22 5 17 -30 31
-56 21z"/>
<path d="M3580 1099 l-92 -69 -139 0 -139 0 0 -42 0 -43 133 -3 132 -3 70 53
c98 75 103 79 107 113 2 19 11 34 26 41 17 8 19 13 9 17 -8 3 -54 -24 -107
-64z"/>
<path d="M3875 1160 c-11 -5 -15 -9 -8 -9 6 -1 18 -4 27 -7 11 -4 16 -1 16 10
0 18 -6 19 -35 6z"/>
<path d="M2927 1117 l-27 -23 29 -22 c26 -19 43 -22 126 -22 l95 0 0 45 0 45
-97 0 c-87 -1 -101 -3 -126 -23z"/>
<path d="M6302 1052 c-46 -48 -120 -124 -164 -169 l-81 -81 38 -114 c21 -62
47 -135 58 -163 11 -27 30 -81 43 -120 12 -38 39 -115 59 -170 52 -141 75
-217 69 -227 -3 -4 9 -8 26 -8 19 0 33 6 37 16 5 14 -31 140 -57 199 -9 20
-48 129 -94 260 -13 39 -45 128 -70 199 l-46 129 22 26 c13 13 76 79 140 145
79 81 118 128 118 144 0 12 -3 22 -7 21 -5 0 -46 -40 -91 -87z"/>
<path d="M3687 1123 c-14 -13 -7 -41 12 -46 23 -6 51 9 51 27 0 21 -48 35 -63
19z"/>
<path d="M3831 1116 c-17 -21 24 -49 51 -35 21 11 23 20 6 37 -16 16 -43 15
-57 -2z"/>
<path d="M5230 1065 c0 -14 3 -25 8 -25 4 0 19 -10 35 -23 22 -17 32 -42 53
-122 42 -168 82 -317 100 -380 9 -33 22 -80 29 -105 11 -44 16 -48 187 -161
l175 -117 19 -66 c10 -37 24 -66 32 -66 14 0 10 23 -18 102 -15 43 -45 78 -76
89 -7 2 -71 42 -142 89 -155 101 -134 63 -222 400 -39 149 -79 297 -91 336 -7
21 -20 36 -39 44 -17 7 -30 16 -30 21 0 5 -4 9 -10 9 -5 0 -10 -11 -10 -25z"/>
<path d="M2853 1063 c-19 -7 -16 -31 5 -41 32 -17 71 10 50 35 -11 13 -33 16
-55 6z"/>
<path d="M3650 1042 c-14 -9 -27 -19 -30 -22 -3 -3 -33 -27 -67 -53 l-61 -47
-141 0 -141 0 0 -45 0 -45 137 0 136 0 56 43 c31 23 67 52 81 65 14 12 28 22
33 22 4 0 5 11 1 24 -4 17 1 31 15 45 35 35 24 42 -19 13z"/>
<path d="M3885 1050 c-3 -5 1 -10 9 -10 9 0 16 5 16 10 0 6 -4 10 -9 10 -6 0
-13 -4 -16 -10z"/>
<path d="M6270 919 c-85 -90 -114 -127 -111 -143 1 -11 16 -52 31 -91 15 -38
60 -160 100 -270 39 -110 80 -222 90 -250 l19 -50 0 265 c1 243 -1 269 -19
309 -11 24 -20 50 -20 57 0 8 -8 17 -17 21 -28 9 -63 45 -63 63 0 9 5 21 12
28 15 15 74 16 83 2 17 -28 25 -1 25 85 0 52 -4 95 -8 95 -4 0 -59 -55 -122
-121z"/>
<path d="M2930 1015 c-7 -8 -19 -15 -26 -15 -26 0 -14 -15 29 -39 36 -20 53
-22 127 -19 l85 3 3 43 3 42 -104 0 c-81 0 -107 -3 -117 -15z"/>
<path d="M3695 1016 c-21 -15 -9 -46 19 -46 30 0 48 14 41 32 -8 21 -40 29
-60 14z"/>
<path d="M3846 1017 c-27 -20 -10 -49 27 -45 36 4 44 19 22 42 -20 19 -26 20
-49 3z"/>
<path d="M308 989 c-21 -12 -24 -35 -5 -42 22 -8 68 14 65 32 -4 19 -36 25
-60 10z"/>
<path d="M2841 946 c-9 -11 -8 -18 4 -30 20 -19 26 -20 50 -2 24 17 13 46 -18
46 -14 0 -30 -6 -36 -14z"/>
<path d="M3972 818 c2 -71 7 -111 13 -108 6 3 9 19 9 35 -6 140 -9 177 -16
181 -5 3 -7 -45 -6 -108z"/>
<path d="M2911 894 c-19 -13 -27 -24 -19 -24 8 0 25 -9 38 -20 20 -17 37 -20
122 -20 l98 0 0 45 0 45 -102 -1 c-92 -1 -107 -3 -137 -25z"/>
<path d="M2843 844 c-20 -9 -15 -42 7 -49 26 -8 62 12 58 33 -3 17 -41 26 -65
16z"/>
<path d="M6317 843 c-11 -10 -8 -20 9 -37 20 -21 53 -20 61 0 10 28 -49 59
-70 37z"/>
<path d="M1653 804 c-9 -23 23 -45 50 -35 12 5 23 18 25 30 3 18 -1 21 -33 21
-24 0 -38 -5 -42 -16z"/>
<path d="M6386 762 c-2 -4 -1 -14 5 -22 7 -12 9 -10 9 8 0 23 -5 28 -14 14z"/>
<path d="M581 722 c-8 -15 -7 -23 5 -33 13 -11 20 -10 42 2 37 20 35 43 -5 47
-23 2 -34 -2 -42 -16z"/>
<path d="M292 568 c-23 -23 -14 -48 17 -48 32 0 56 22 47 45 -6 18 -47 20 -64
3z"/>
<path d="M2461 560 c0 -18 12 -34 42 -57 23 -17 51 -40 62 -50 12 -10 44 -37
72 -61 l52 -42 225 -3 c124 -1 226 -1 226 1 0 1 -6 12 -12 25 -7 12 -14 23
-15 25 -1 2 -87 3 -191 2 l-189 -1 -44 37 c-24 20 -52 45 -62 55 -10 10 -21
19 -25 19 -4 0 -24 16 -44 35 -36 34 -37 35 -48 15 -14 -26 -24 -25 -38 3
l-11 22 0 -25z"/>
<path d="M4993 555 c-26 -19 -6 -50 33 -50 22 0 30 5 32 21 4 29 -39 48 -65
29z"/>
<path d="M2078 529 c-24 -13 -23 -46 2 -54 42 -13 85 43 44 59 -21 8 -26 7
-46 -5z"/>
<path d="M3223 533 c-15 -5 -17 -49 -3 -58 18 -11 60 7 60 25 0 27 -29 43 -57
33z"/>
<path d="M1412 464 c-45 -31 -14 -75 38 -54 31 13 39 37 18 58 -16 16 -29 15
-56 -4z"/>
<path d="M4016 451 c-16 -17 -16 -20 -1 -35 21 -20 49 -21 66 0 11 14 10 19
-10 35 -29 24 -34 24 -55 0z"/>
<path d="M3595 429 c-8 -25 1 -35 35 -44 34 -8 58 26 34 50 -23 22 -61 19 -69
-6z"/>
<path d="M1883 423 c-7 -2 -13 -16 -13 -29 0 -20 5 -24 29 -24 32 0 56 22 47
45 -5 14 -38 19 -63 8z"/>
<path d="M4863 423 c-20 -8 -15 -41 7 -53 27 -15 60 -3 60 20 0 28 -37 46 -67
33z"/>
<path d="M5193 423 c-7 -2 -13 -13 -13 -23 0 -43 72 -55 78 -13 3 17 -3 26
-23 33 -14 5 -27 10 -28 9 -1 0 -8 -3 -14 -6z"/>
<path d="M4153 343 c-18 -7 -16 -50 3 -57 30 -12 53 -6 60 16 10 32 -27 56
-63 41z"/>
<path d="M916 307 c-28 -20 -17 -52 18 -52 32 0 53 23 43 49 -8 19 -37 21 -61
3z"/>
<path d="M1205 304 c-9 -9 -14 -23 -11 -31 3 -8 6 -17 6 -19 0 -13 43 -1 61
17 16 16 18 23 8 35 -15 19 -44 18 -64 -2z"/>
<path d="M3772 288 c-18 -18 -15 -36 8 -48 41 -22 84 14 54 45 -18 18 -46 19
-62 3z"/>
<path d="M1649 248 c-10 -18 -8 -24 7 -35 23 -17 27 -17 54 5 29 23 18 52 -21
52 -19 0 -32 -7 -40 -22z"/>
<path d="M4997 240 c-73 -23 -127 -92 -127 -162 0 -57 10 -78 36 -78 23 0 24
2 19 53 -8 66 15 105 77 136 86 41 189 19 269 -58 37 -36 50 -56 55 -89 6 -36
10 -42 30 -42 34 0 35 27 4 96 -37 81 -153 147 -265 151 -38 1 -83 -2 -98 -7z"/>
<path d="M4293 219 c-37 -14 -27 -46 19 -62 9 -3 24 0 33 7 14 10 15 17 7 33
-14 26 -31 33 -59 22z"/>
<path d="M3780 201 c0 -5 35 -35 78 -67 42 -32 82 -62 87 -66 6 -4 27 -21 47
-38 32 -27 44 -31 84 -28 l47 3 -135 103 c-114 86 -141 102 -172 102 -20 0
-36 -4 -36 -9z"/>
<path d="M5012 160 c-44 -27 -64 -76 -51 -124 10 -36 10 -36 64 -36 l53 0 -11
30 c-16 41 0 64 45 68 47 4 81 -24 81 -66 0 -31 1 -32 49 -32 48 0 48 0 48 33
0 108 -177 189 -278 127z"/>
<path d="M1241 131 c-26 -26 -17 -51 19 -51 35 0 58 25 43 48 -15 25 -39 26
-62 3z"/>
<path d="M1456 137 c-10 -7 -16 -22 -14 -33 2 -14 12 -19 38 -19 29 0 36 4 38
24 6 37 -29 52 -62 28z"/>
<path d="M5520 52 c0 -23 30 -52 53 -52 23 0 38 30 26 52 -14 26 -79 25 -79 0z"/>
<path d="M5987 23 c-16 -15 -4 -23 34 -23 36 0 40 2 29 15 -13 15 -51 20 -63
8z"/>
</g>
</svg>
